<svg xmlns="http://www.w3.org/2000/svg" width="3953" height="2391" viewBox="0 0 3953 2391">
  <defs>
    <style>
      .cls-1 {
        fill-rule: evenodd;
      }
    </style>
  </defs>
  <path id="bike_1" data-name="bike 1" class="cls-1" d="M3942.33,1668.31a8.8,8.8,0,0,0,2.07,4.14h1.03v2.07c0.69,0.34,1.38.69,2.07,1.03v2.07c0.69,0.35,1.38.69,2.07,1.04v4.14h1.04v4.14h1.03v4.14h1.04c1.21,4.15-1.27,9.99-2.07,12.42v4.14h-1.04c-0.34,3.1-.69,6.21-1.03,9.31h-1.04q-1.035,6.735-2.07,13.46c-5.13,15.73-8.17,34.31-13.45,49.68v4.14h-1.04v3.1h-1.03v3.11h-1.04v4.14h-1.03c-0.35,2.07-.69,4.14-1.04,6.21h-1.03v3.11h-1.04v3.1h-1.03v3.11h-1.04v3.1h-1.03v3.11h-1.04v3.1h-1.03c-0.69,3.11-1.38,6.21-2.07,9.32h-1.04v2.07h-1.03c-0.69,3.1-1.38,6.21-2.07,9.31h-1.04v2.07h-1.03v3.11h-1.04c-0.34,1.72-.69,3.45-1.03,5.17h-1.04v2.07h-1.03v3.11h-1.04c-0.34,1.38-.69,2.76-1.03,4.14h-1.04v3.1H3903v2.07h-1.04v3.11h-1.03c-0.35,1.38-.69,2.76-1.04,4.14h-1.03v2.07h-1.04v3.1h-1.03c-0.35,1.38-.69,2.76-1.04,4.14h-1.03v2.07h-1.04v2.07h-1.03v3.11h-1.04l-2.07,6.21h-1.03v2.07h-1.04v2.07h-1.03v2.07h-1.04c-0.34,1.38-.69,2.76-1.03,4.14h-1.04v2.07h-1.03v2.07h-1.04v2.07h-1.03v2.07h-1.04v2.07h-1.03c-0.35,1.38-.69,2.76-1.04,4.14-0.69.34-1.38,0.69-2.07,1.03v2.07h-1.03v2.07h-1.04v2.07h-1.03v2.08h-1.04v2.07c-0.69.34-1.38,0.69-2.07,1.03l-2.07,6.21c-0.69.35-1.38,0.69-2.07,1.04l-2.07,6.21c-0.69.34-1.38,0.69-2.07,1.03-0.34,1.38-.69,2.76-1.03,4.14-0.69.35-1.38,0.69-2.07,1.04-0.35,1.38-.69,2.76-1.04,4.14-0.69.34-1.38,0.69-2.07,1.03-0.34,1.38-.69,2.76-1.03,4.14h-1.04c-0.34,1.04-.69,2.07-1.03,3.11-0.69.34-1.38,0.69-2.07,1.03-0.35,1.38-.69,2.76-1.04,4.14-0.69.35-1.38,0.69-2.07,1.04v2.07c-0.69.34-1.38,0.69-2.07,1.03v2.07h-1.03c-0.35,1.04-.69,2.07-1.04,3.11-0.69.34-1.38,0.69-2.07,1.03v2.07c-0.69.35-1.38,0.69-2.07,1.04v2.07c-0.69.34-1.38,0.69-2.07,1.03v2.07h-1.03c-0.35,1.04-.69,2.07-1.04,3.11-0.69.34-1.38,0.69-2.07,1.03v2.07c-1.03.69-2.07,1.38-3.1,2.07v2.07c-0.69.35-1.38,0.69-2.07,1.04v2.07c-0.69.34-1.38,0.69-2.07,1.03-0.35,1.04-.69,2.07-1.04,3.11-1.03.69-2.07,1.38-3.1,2.07v2.07c-0.69.34-1.38,0.69-2.07,1.03v2.07c-1.04.69-2.07,1.38-3.11,2.07v2.07c-0.69.35-1.38,0.69-2.07,1.04v2.07c-0.69.34-1.38,0.69-2.07,1.03-0.34,1.04-.69,2.07-1.03,3.11-1.04.69-2.07,1.38-3.11,2.07v2.07c-1.03.69-2.07,1.38-3.1,2.07v2.07c-1.04.69-2.07,1.38-3.11,2.07v2.07c-1.03.69-2.07,1.38-3.1,2.07v2.07c-1.38,1.03-2.76,2.07-4.14,3.1v2.07c-1.38,1.04-2.76,2.07-4.14,3.11v2.07c-1.38,1.03-2.76,2.07-4.14,3.1v2.07c-1.73,1.38-3.45,2.77-5.18,4.15v2.07c-1.72,1.38-3.45,2.76-5.17,4.14v2.07c-1.38,1.03-2.76,2.07-4.14,3.1-0.69,1.04-1.38,2.07-2.07,3.11h-1.04v2.07q-4.65,4.14-9.31,8.28c-6.66,9.19-14.89,15.92-22.77,23.8-9.78,9.77-18.64,19.72-30.02,27.95q-3.105,3.615-6.21,7.24h-2.07c-0.34.69-.69,1.38-1.03,2.07h-1.04c-0.69,1.04-1.38,2.07-2.07,3.11h-2.07c-1.38,1.72-2.76,3.45-4.14,5.17h-2.07v1.04c-1.03.69-2.07,1.38-3.1,2.07-0.35.69-.69,1.38-1.04,2.07h-2.07c-0.34.69-.69,1.38-1.03,2.07-1.04.34-2.07,0.69-3.11,1.03-1.03,1.38-2.07,2.76-3.1,4.14h-2.07c-0.69,1.04-1.38,2.07-2.07,3.11h-2.07c-0.69,1.03-1.38,2.07-2.07,3.1h-2.07c-0.69,1.04-1.38,2.07-2.07,3.11h-2.07c-0.69,1.03-1.38,2.07-2.07,3.1-1.04.35-2.07,0.69-3.11,1.04-0.34.69-.69,1.38-1.03,2.07h-2.07c-0.35.69-.69,1.38-1.04,2.07h-2.07c-0.69,1.03-1.38,2.07-2.07,3.1h-2.07c-0.34.69-.69,1.39-1.03,2.08h-2.07c-0.35.69-.69,1.38-1.04,2.07-1.03.34-2.07,0.69-3.1,1.03-0.69,1.04-1.38,2.07-2.07,3.11h-2.07c-0.35.69-.69,1.38-1.04,2.07h-2.07c-0.69,1.03-1.38,2.07-2.07,3.1h-2.07c-0.34.69-.69,1.38-1.03,2.07-1.04.35-2.07,0.69-3.11,1.04v1.03h-2.07c-0.34.69-.69,1.38-1.03,2.07h-2.07c-0.35.69-.69,1.38-1.04,2.07h-2.07c-0.34.69-.69,1.38-1.03,2.07h-2.07c-0.35.69-.69,1.38-1.04,2.07h-2.07c-0.34.69-.69,1.38-1.03,2.07h-2.07c-0.35.69-.69,1.38-1.04,2.07-1.38.35-2.76,0.69-4.14,1.04v1.03c-1.03.35-2.07,0.69-3.1,1.04-0.35.69-.69,1.38-1.04,2.07-1.38.34-2.76,0.69-4.14,1.03-0.34.69-.69,1.38-1.03,2.07-1.38.35-2.76,0.69-4.14,1.04-0.35.69-.69,1.38-1.04,2.07-1.38.34-2.76,0.69-4.14,1.03-0.34.69-.69,1.38-1.03,2.07l-6.21,2.07c-0.35.69-.69,1.38-1.04,2.07-1.38.35-2.76,0.69-4.14,1.04v1.03h-2.07c-0.34.69-.69,1.38-1.03,2.07h-2.07v1.04h-2.07v1.03h-2.07v1.04h-2.07v1.03h-2.07c-0.35.69-.69,1.38-1.04,2.07h-2.07v1.04h-2.07v1.03h-2.07V2250h-2.07v1.03h-2.07v1.04h-2.07v1.03h-2.07v1.04h-2.07v1.03h-2.07v1.04h-2.07v1.03h-2.07v1.04h-2.07v1.03c-1.38.35-2.76,0.69-4.14,1.04v1.03h-2.07v1.04c-1.72.34-3.45,0.69-5.17,1.03v1.04c-2.07.69-4.15,1.38-6.21,2.07v1.03h-3.11v1.04h-2.07v1.03c-1.38.35-2.76,0.69-4.14,1.04v1.03h-3.1v1.04c-1.38.34-2.76,0.69-4.14,1.03v1.04h-3.11v1.03h-2.07v1.04h-3.1v1.03h-2.07v1.04c-1.73.34-3.46,0.69-5.18,1.03v1.04h-3.11v1.03h-2.06v1.04q-4.665,1.035-9.32,2.07v1.03h-2.07v1.04h-3.1v1.03h-3.11v1.04h-3.1v1.03h-3.11v1.04h-3.1v1.03h-3.11v1.04h-3.1v1.03h-3.11v1.04h-3.11v1.03h-3.1v1.04h-3.11v1.03c-3.44.69-6.9,1.38-10.35,2.07v1.04l-11.38,2.07v1.03c-2.76.35-5.52,0.69-8.28,1.04-10.45,3.57-23.6,5.92-34.16,9.31h-5.17v1.04h-4.14v1.03h-4.14v1.04h-4.14v1.04h-5.18v1.03c-3.1.34-6.21,0.69-9.31,1.04v1.03h-5.18v1.04l-15.52,2.07v1.03h-6.21c-5.91,1.76-14.68,2.39-20.7,4.14h-7.25v1.04h-9.31v1.03h-8.28v1.04h-11.39v1.03q-15.51.525-31.05,1.04c-11.69,1.01-27.02,1.03-40.36,1.03h-16.56v-1.03h-19.67v-1.04h-13.45v-1.03h-11.39v-1.04h-8.28v-1.03h-9.31c-6.32-1.85-15.43-2.27-21.74-4.14h-6.21c-6.41-1.97-15.38-3.19-21.73-5.18h-5.18c-14-4.54-30.68-6.92-44.5-11.39h-5.18v-1.03h-4.14v-1.04h-4.14v-1.03h-4.14v-1.04h-4.14v-1.03c-2.76-.35-5.52-0.69-8.28-1.04v-1.03q-7.245-1.56-14.49-3.11v-1.03c-2.41-.35-4.83-0.69-7.24-1.04v-1.03h-3.11v-1.04h-3.1v-1.03h-3.11v-1.04h-3.1v-1.03h-3.11v-1.04h-3.1v-1.03h-3.11v-1.04h-3.1v-1.03h-3.11v-1.04h-3.1v-1.03h-3.11v-1.04h-2.07v-1.03c-2.07-.35-4.14-0.69-6.21-1.04v-1.03h-2.07v-1.04c-2.07-.34-4.14-0.69-6.21-1.03v-1.04c-1.72-.34-3.45-0.69-5.17-1.03v-1.04h-2.07v-1.03h-3.11v-1.04h-2.07v-1.03h-3.1v-1.04c-1.38-.34-2.76-0.69-4.14-1.03v-1.04h-3.11v-1.03h-2.07v-1.04h-2.07v-1.03h-2.07v-1.04h-3.1v-1.03h-2.07v-1.04l-6.21-2.07v-1.03h-3.11v-1.04h-2.07v-1.03c-1.38-.35-2.76-0.69-4.14-1.04v-1.03c-1.38-.35-2.76-0.69-4.14-1.04v-1.03c-1.38-.35-2.76-0.69-4.14-1.04v-1.03h-2.07v-1.04h-2.07v-1.03h-2.07v-1.04h-2.07V2250h-2.07v-1.04h-2.07v-1.03h-2.07v-1.04h-2.07c-0.34-.69-0.69-1.38-1.03-2.07h-2.07v-1.03h-2.07v-1.04h-2.07v-1.03H2809v-1.04h-2.07c-0.35-.69-0.69-1.38-1.04-2.07l-6.21-2.07c-0.34-.69-0.69-1.38-1.03-2.07l-6.21-2.07c-0.35-.69-0.69-1.38-1.04-2.07-1.38-.34-2.76-0.69-4.14-1.03-0.34-.69-0.69-1.38-1.03-2.07-1.38-.35-2.76-0.69-4.14-1.04-0.35-.69-0.69-1.38-1.04-2.07-1.38-.34-2.76-0.69-4.14-1.03v-1.04c-1.03-.34-2.07-0.69-3.1-1.03-0.35-.69-0.69-1.38-1.04-2.07-1.38-.35-2.76-0.69-4.14-1.04-0.34-.69-0.69-1.38-1.03-2.07h-2.07c-0.35-.69-0.69-1.38-1.04-2.07h-2.07c-0.34-.69-0.69-1.38-1.03-2.07h-2.07v-1.03c-1.04-.35-2.07-0.69-3.11-1.04-0.34-.69-0.69-1.38-1.03-2.07h-2.07c-0.35-.69-0.69-1.38-1.04-2.07H2750v-1.03c-1.03-.35-2.07-0.69-3.1-1.04-0.35-.69-0.69-1.38-1.04-2.07h-2.07c-0.69-1.03-1.38-2.07-2.07-3.1h-2.07c-0.34-.69-0.69-1.38-1.03-2.07h-2.07c-0.35-.69-0.69-1.38-1.04-2.07-1.03-.35-2.07-0.69-3.1-1.04-0.69-1.03-1.38-2.07-2.07-3.1h-2.07c-0.35-.69-0.69-1.39-1.04-2.08h-2.07c-0.69-1.03-1.38-2.07-2.07-3.1h-2.07c-0.34-.69-0.69-1.38-1.03-2.07h-2.07c-0.35-.69-0.69-1.38-1.04-2.07-1.03-.35-2.07-0.69-3.1-1.04-0.69-1.03-1.38-2.07-2.07-3.1h-2.07c-0.69-1.04-1.38-2.07-2.07-3.11h-2.07c-0.69-1.03-1.38-2.07-2.07-3.1h-2.07c-0.69-1.04-1.38-2.07-2.07-3.11h-2.07c-1.04-1.38-2.07-2.76-3.11-4.14-1.03-.34-2.07-0.69-3.1-1.03-0.35-.69-0.69-1.38-1.04-2.07h-2.07c-1.38-1.73-2.76-3.45-4.14-5.18h-2.07c-1.38-1.72-2.76-3.45-4.14-5.17h-2.07c-1.38-1.73-2.76-3.45-4.14-5.18h-2.07q-3.105-3.615-6.21-7.24h-2.07q-4.14-4.665-8.28-9.32h-2.07q-6.72-7.245-13.45-14.49c-8.87-8.87-18.41-16.58-25.88-26.91q-5.175-4.65-10.35-9.31v-2.07q-3.615-3.1-7.24-6.21v-2.07c-1.73-1.38-3.45-2.76-5.18-4.14v-2.07l-5.17-4.15v-2.07c-1.38-1.03-2.76-2.07-4.14-3.1v-2.07c-1.38-1.04-2.76-2.07-4.14-3.11v-2.07c-1.38-1.03-2.76-2.07-4.14-3.1v-2.07c-1.04-.69-2.07-1.38-3.11-2.07v-2.07c-1.03-.69-2.07-1.38-3.1-2.07v-2.07c-1.04-.69-2.07-1.38-3.11-2.07v-2.07c-1.03-.69-2.07-1.38-3.1-2.07-0.35-1.04-.69-2.07-1.04-3.11-0.69-.34-1.38-0.69-2.07-1.03v-2.07c-0.69-.35-1.38-0.69-2.07-1.04v-2.07c-1.03-.69-2.07-1.38-3.1-2.07v-2.07c-0.69-.34-1.38-0.69-2.07-1.03v-2.07c-0.69-.35-1.38-0.69-2.07-1.04-0.35-1.03-.69-2.07-1.04-3.1-1.03-.69-2.07-1.38-3.1-2.07v-2.07c-0.69-.35-1.38-0.69-2.07-1.04v-2.07c-1.04-.69-2.07-1.38-3.11-2.07v-2.07c-0.69-.34-1.38-0.69-2.07-1.03-0.34-1.04-.69-2.07-1.03-3.11h-1.04v-2.07c-0.69-.34-1.38-0.69-2.07-1.03v-2.07c-0.69-.35-1.38-0.69-2.07-1.04v-2.07c-0.69-.34-1.38-0.69-2.07-1.03v-2.07c-0.69-.35-1.38-0.69-2.07-1.04v-2.07c-0.69-.34-1.38-0.69-2.07-1.03v-2.07c-0.69-.35-1.38-0.69-2.07-1.04-0.34-1.38-.69-2.76-1.03-4.14h-1.04c-0.34-1.03-.69-2.07-1.03-3.1-0.69-.35-1.38-0.69-2.07-1.04-0.35-1.38-.69-2.76-1.04-4.14-0.69-.34-1.38-0.69-2.07-1.03-0.34-1.38-.69-2.76-1.03-4.14-0.69-.35-1.38-0.69-2.07-1.04-0.35-1.38-.69-2.76-1.04-4.14-0.69-.34-1.38-0.69-2.07-1.03l-2.07-6.21c-0.69-.35-1.38-0.69-2.07-1.04l-2.07-6.21c-0.69-.34-1.38-0.69-2.07-1.03v-2.07h-1.03v-2.08h-1.04v-2.07h-1.03v-2.07h-1.04v-2.07c-0.69-.34-1.38-0.69-2.07-1.03v-2.07h-1.03v-2.07h-1.04v-2.07h-1.03v-2.07h-1.04c-0.34-1.38-.69-2.76-1.03-4.14h-1.04c-0.34-1.38-.69-2.76-1.03-4.14h-1.04v-2.07h-1.03v-2.07h-1.04v-2.07h-1.03v-2.07h-1.04c-0.34-1.38-.69-2.76-1.03-4.14h-1.04v-2.07h-1.03v-3.11h-1.04v-2.07h-1.03l-2.07-6.21h-1.04v-3.1h-1.03v-2.07h-1.04v-2.07h-1.03v-2.07h-1.04v-3.11h-1.03v-2.07h-1.04v-3.1h-1.03c-0.35-1.38-.69-2.76-1.04-4.14h-1.03v-3.11h-1.04v-2.07h-1.03c-0.35-1.72-.69-3.45-1.04-5.17h-1.03c-0.35-2.07-.69-4.14-1.04-6.21h-1.03v-2.07h-1.04c-0.34-2.07-.69-4.14-1.03-6.21h-1.04v-2.07h-1.03c-0.69-3.11-1.38-6.21-2.07-9.32h-1.04v-3.1h-1.03v-3.11h-1.04v-3.1h-1.03V1807h-1.04v-3.1h-1.03v-3.11h-1.04c-0.34-2.07-.69-4.14-1.03-6.21h-1.04v-4.14h-1.03v-3.11h-1.04v-3.1h-1.03q-1.035-5.7-2.07-11.39h-1.04v-4.14h-1.03l-2.07-12.42c-6.19-18.14-8.71-39.45-14.49-57.96v-5.17c-1.98-6.35-3.23-15.32-5.18-21.74v-6.21c-2.64-8.94-2.58-20.95-5.17-30.02v-9.31h-1.04v-11.39h-1.03v-13.45h-1.04v-19.67c-2.56-9.24-1.03-24.12-1.03-35.19,0-6.48-.33-14.83,1.03-19.67,1.61-5.67-.39-14.63,1.04-19.66v-13.46h1.03V1482h1.04v-8.28h1.03q0.525-8.28,1.04-16.56,4.65-26.4,9.31-52.79c5.84-17.98,8.43-39.14,14.49-56.93l2.07-12.42h1.04q1.545-7.245,3.1-14.49h1.04c0.34-2.41.69-4.83,1.03-7.24h1.04v-3.11h1.03v-3.1h1.04v-3.11h1.03v-3.1h1.04v-3.11h1.03v-3.1h1.04v-3.11h1.03v-3.1h1.04v-3.11h1.03v-3.1h1.04v-3.11h1.03v-2.07h1.04c0.34-2.07.69-4.14,1.03-6.21h1.04v-2.07h1.03c0.35-2.07.69-4.14,1.04-6.21h1.03v-2.07h1.04v-3.11h1.03v-2.07h1.04v-3.1h1.03c0.35-1.38.69-2.76,1.04-4.14h1.03c0.35-1.73.69-3.45,1.04-5.18h1.03v-3.1h1.04c0.34-1.38.69-2.76,1.03-4.14h1.04v-2.07h1.03v-3.11h1.04l2.07-6.21h1.03c0.35-1.72.69-3.45,1.04-5.17h1.03v-2.07h1.04c0.34-1.38.69-2.76,1.03-4.14h1.04v-2.07h1.03v-2.07h1.04v-2.07h1.03v-2.07h1.04v-2.07h1.03v-2.07h1.04v-2.07h1.03v-2.07h1.04v-2.07h1.03v-2.07h1.04v-2.07h1.03v-2.07c0.69-.35,1.38-0.69,2.07-1.04v-2.07h1.04v-2.07h1.03l2.07-6.21c0.69-.34,1.38-0.69,2.07-1.03l2.07-6.21c0.69-.35,1.38-0.69,2.07-1.04l2.07-6.21c0.69-.34,1.38-0.69,2.07-1.03,0.35-1.38.69-2.76,1.04-4.14,0.69-.35,1.38-0.69,2.07-1.04,0.34-1.38.69-2.76,1.03-4.14,0.69-.34,1.38-0.69,2.07-1.03,0.35-1.38.69-2.76,1.04-4.14h1.03c0.35-1.04.69-2.07,1.04-3.11,0.69-.35,1.38-0.69,2.07-1.03,0.34-1.38.69-2.77,1.03-4.15,0.69-.34,1.38-0.69,2.07-1.03v-2.07c0.69-.35,1.38-0.69,2.07-1.04v-2.07c0.69-.34,1.38-0.69,2.07-1.03v-2.07c0.69-.35,1.38-0.69,2.07-1.04v-2.07h1.04c0.34-1.03.69-2.07,1.03-3.1,0.69-.35,1.38-0.69,2.07-1.04v-2.07h1.04c0.34-1.03.69-2.07,1.03-3.1,0.69-.35,1.38-0.69,2.07-1.04v-2.07c1.04-.69,2.07-1.38,3.11-2.07v-2.07c0.69-.34,1.38-0.69,2.07-1.03v-2.07c0.69-.35,1.38-0.69,2.07-1.04,0.34-1.03.69-2.07,1.03-3.1,1.04-.69,2.07-1.38,3.11-2.07V1098c0.69-.35,1.38-0.69,2.07-1.04v-2.07c1.03-.69,2.07-1.38,3.1-2.07v-2.07c0.69-.34,1.38-0.69,2.07-1.03v-2.07c0.69-.35,1.38-0.69,2.07-1.04,0.35-1.03.69-2.07,1.04-3.1,1.03-.69,2.07-1.38,3.1-2.07v-2.07c1.04-.69,2.07-1.38,3.11-2.07v-2.07c1.03-.69,2.07-1.38,3.1-2.07v-2.07c1.04-.69,2.07-1.38,3.11-2.07v-2.07c0.69-.35,1.38-0.69,2.07-1.04v-1.03c0.69-.35,1.38-0.69,2.07-1.04v-2.07h1.03c1.49-1.81,2.36-2.5,3.11-5.17-3.39-.9-4.9-3.21-7.25-5.18v-1.03h-2.07q-5.175-5.7-10.35-11.39h-2.07q-5.175-5.685-10.35-11.38h-2.07c-1.72-2.07-3.45-4.14-5.17-6.21h-2.07q-5.175-5.7-10.35-11.39h-2.07q-5.175-5.685-10.35-11.385h-2.07l-10.35-11.386h-2.07L2494.36,980h-2.07q-4.665-5.175-9.32-10.351h-2.07c-1.03-1.38-2.07-2.76-3.1-4.14h-1.04c-0.34-.69-0.69-1.38-1.03-2.07h-2.07l-10.35-11.385h-2.07q-5.7-6.21-11.39-12.421h-2.07q-5.175-5.692-10.35-11.385h-2.07l-4.14-5.175h-2.07l-8.28-9.316h-1.03c-0.35-.69-0.69-1.38-1.04-2.07h-2.07l-10.35-11.385h-2.07l-10.35-11.386h-2.07l-6.21-7.245h-2.07q-4.65-5.175-9.31-10.35h-2.07l-10.35-11.386h-2.07c-1.73-2.07-3.45-4.14-5.18-6.21h-2.07q-5.685-6.21-11.38-12.42h-2.07q-4.665-5.175-9.32-10.351h-2.07c-1.72-2.07-3.45-4.14-5.17-6.21h-2.07l-10.35-11.386h-2.07c-3-2.142-.51-3.351-6.21-4.14q-6.735,7.245-13.46,14.491h-2.07l-8.28,9.315-4.14,3.105c-0.34.69-.69,1.38-1.03,2.07h-2.07l-10.35,11.386c-1.04.69-2.07,1.38-3.11,2.07v1.035h-2.07l-4.14,5.175-2.07,1.035V1500.63h-1.03q-1.035,6.72-2.07,13.45h-1.04v4.14h-1.03v4.14h-1.04v3.11h-1.03v2.07h-1.04v2.07c-0.69.34-1.38,0.69-2.07,1.03v2.07c-0.69.35-1.38,0.69-2.07,1.04v2.07c-1.03.69-2.07,1.38-3.1,2.07v2.07c-1.04.69-2.07,1.38-3.11,2.07v2.07c-0.69.35-1.38,0.69-2.07,1.04-1.03,1.38-2.07,2.76-3.1,4.14h-2.07c-0.69,1.03-1.38,2.07-2.07,3.1h-2.07c-0.69,1.04-1.38,2.07-2.07,3.11h-2.07c-0.35.69-.69,1.38-1.04,2.07h-2.07c-0.34.69-.69,1.38-1.03,2.07h-2.07v1.03h-3.11v1.04h-2.07v1.03c-2.76.35-5.52,0.69-8.28,1.04v1.03h-4.14v1.04h-4.14c-11.67,3.77-20.92,1.33-31.05-2.07-2.76-.35-5.52-0.69-8.28-1.04v-1.03h-2.07v-1.04h-3.1v-1.03h-2.07c-0.35-.69-0.69-1.38-1.04-2.07h-2.07c-0.34-.69-0.69-1.38-1.03-2.07h-2.07c-0.69-1.04-1.38-2.07-2.07-3.11h-2.07c-0.69-1.03-1.38-2.07-2.07-3.1h-2.07c-0.35-.69-0.69-1.38-1.04-2.07-1.38-1.04-2.76-2.07-4.14-3.11v-2.07c-1.03-.69-2.07-1.38-3.1-2.07v-2.07c-1.04-.69-2.07-1.38-3.11-2.07v-2.07c-0.69-.35-1.38-0.69-2.07-1.04v-2.07c-0.69-.34-1.38-0.69-2.07-1.03q-2.07-5.685-4.14-11.39v-4.14h-1.03v-4.14h-1.04v-4.14h-1.03v-5.17h-1.04V168.533c-3.97.322-4.74,1.978-7.24,3.105h-3.11v1.035h-2.07v1.035h-3.1v1.035l-4.14,1.035v1.035l-10.35,3.105v1.035h-2.07v1.035h-3.11v1.035h-2.07v1.035h-3.1v1.035l-4.14,1.035v1.035c-1.73.345-3.45,0.691-5.18,1.035v1.036h-3.1v1.035h-2.07V191.3h-3.11v1.035l-4.14,1.035v1.035h-3.1v1.035h-2.07v1.035h-3.11v1.035l-4.14,1.035v1.035h-3.1v1.035h-2.07v1.035h-3.11v1.035l-4.14,1.035v1.035l-10.35,3.105V208.9h-2.07v1.035l-5.17,1.035V212h-3.11v1.035h-2.07v1.035h-3.1v1.035l-8.28,1.036c-1.69.553-6.57,2.792-9.32,2.07V217.18h-4.14v-1.035h-4.14v-1.036l-9.31-2.07-2.07-3.1h-2.07l-2.07-3.1h-2.07l-2.07-3.105h-1.04v-2.07c-1.03-.69-2.07-1.38-3.1-2.07v-2.07c-1.04-.69-2.07-1.38-3.11-2.07v-2.07l-2.07-1.035c-0.34-1.035-.69-2.071-1.03-3.1h-1.04v-2.071l-2.07-1.035v-2.07h-1.03v-2.07h-1.04v-2.07l-2.07-1.035-2.07-6.21h-1.03c-0.35-1.38-.69-2.76-1.04-4.14h-1.03c-0.35-1.725-.69-3.451-1.04-5.175h-1.03v-2.071h-1.04v-3.105h-1.03v-3.1h-1.04v-3.1h-1.03v-3.105h-1.04c-0.34-3.1-.69-6.211-1.03-9.315-0.97-2.881-4.49-10.759-3.11-15.526h1.04v-4.14h1.03v-5.175h1.04V110.57h1.03V108.5h1.04v-2.07l2.07-1.035v-2.07c1.03-.69,2.07-1.38,3.1-2.07v-2.07c1.04-.345,2.07-0.69,3.11-1.035l2.07-3.105h2.07c0.34-.69.69-1.38,1.03-2.07h2.07c0.35-.69.69-1.38,1.04-2.07h3.1V89.87h2.07V88.835h3.11V87.8l4.14-1.035V85.73l10.35-3.105V81.59h2.07V80.554h3.1V79.519h2.07V78.484h3.11V77.449l4.14-1.035V75.379h3.1V74.344h2.07V73.309h3.11V72.274l4.14-1.035V70.2h3.1V69.169h2.07V68.134h3.11V67.1l4.14-1.035V65.029h3.1V63.994h2.07V62.959h3.11V61.924h2.07V60.889h3.1V59.854l4.14-1.035V57.783l10.35-3.1V53.643h2.07V52.608h3.11V51.573h2.07V50.538h3.1V49.5l4.14-1.035V47.433h3.11V46.4h2.07V45.363h3.1V44.328l4.14-1.035V42.258h3.11V41.223l5.17-1.035V39.153l4.14-1.035V37.083h3.11V36.048h2.07V35.013h3.1V33.978h2.07V32.943h3.11V31.908l4.14-1.035V29.837l10.35-3.105V25.7h2.07V24.662h3.1V23.627h2.07V22.592h3.11V21.557l4.14-1.035V19.487h3.1V18.452h2.07V17.417h3.11V16.382l4.14-1.035V14.312h3.1V13.277h2.07V12.242l5.18-1.035V10.172h3.1V9.137h4.14V8.1h4.14V7.067h5.18V6.032c2.5-.7,3.97,1.17,5.17,1.035V6.032h4.14V5h4.14V3.961h4.14V2.926h4.14V1.891h5.18V0.856c6.03-1.76,13.94.871,17.59,2.07l8.28,1.035q7.77,2.587,15.53,5.175v1.035c1.03,0.345,2.07.69,3.1,1.035,0.35,0.69.69,1.38,1.04,2.07h2.07l2.07,3.105h2.07l2.07,3.105h2.07c0.34,0.69.69,1.38,1.03,2.07l4.14,3.105v2.07c1.04,0.69,2.07,1.38,3.11,2.07v2.07c1.03,0.69,2.07,1.38,3.1,2.07v2.07l2.07,1.035v2.07l2.07,1.035v2.07h1.04v2.07h1.03c0.35,2.415.69,4.83,1.04,7.245,1.74,5.168,3.59,12.178,5.17,17.6V658.106h1.04c2.71-4.631,7.06-7.226,11.38-10.35q6.735-7.245,13.46-14.491h2.07q6.72-7.243,13.45-14.49h2.07q6.735-7.245,13.46-14.491h2.07q4.14-4.656,8.28-9.315l4.14-3.105v-1.035h2.07q6.72-7.245,13.45-14.491h2.07c1.73-2.07,3.45-4.14,5.18-6.21,4.14-4.144,9.28-7.259,13.45-11.385l10.35-11.386h2.07q6.735-7.245,13.46-14.49h2.07q6.72-7.245,13.45-14.491c12.07-8.73,21.05-20.254,33.12-28.981q6.735-7.245,13.46-14.491h2.07q6.72-7.244,13.45-14.49h2.07q4.14-4.657,8.28-9.315l4.14-3.106c0.35-.69.69-1.38,1.04-2.07h2.07q6.72-7.244,13.45-14.49h2.07q5.7-6.21,11.39-12.421h1.03c0.35-.69.69-1.38,1.04-2.07h2.07l8.28-9.315,4.14-3.105c0.34-.69.69-1.38,1.03-2.07h2.07l6.21-7.246h2.07l2.07-3.105h2.07c0.35-.69.69-1.38,1.04-2.07h2.07c0.34-.69.69-1.38,1.03-2.07q4.665-1.553,9.32-3.105h4.14v-1.035h4.14v-1.035h4.14v-1.035c5.09-1.509,12.55,1.1,15.52,2.07h4.14v1.035h4.14v1.035l8.28,1.035v1.035l6.21,2.07v1.035h2.07V392.1h2.07c0.35,0.69.69,1.38,1.04,2.07h2.07c0.34,0.69.69,1.381,1.03,2.07h2.07l2.07,3.106h2.07q1.035,1.551,2.07,3.105h2.07l4.14,5.175,2.07,1.035v2.07c1.04,0.69,2.07,1.38,3.11,2.07v2.07c1.03,0.69,2.07,1.38,3.1,2.07v2.07c1.04,0.69,2.07,1.38,3.11,2.07,0.34,1.38.69,2.761,1.03,4.14l2.07,1.036v2.07h1.04c0.34,1.38.69,2.76,1.03,4.14h1.04v3.1h1.03v3.105h1.04v5.175c1.49,4.739,6.35,16.4,4.14,23.806h-1.04v4.14h-1.03v4.14h-1.04v5.176h-1.03v4.14h-1.04c-0.34,1.38-.69,2.76-1.03,4.14h-1.04v2.07q-5.685,7.245-11.38,14.491h-2.07v1.035l-4.14,3.105q-4.665,5.175-9.32,10.35h-2.07l-8.28,9.316-4.14,3.105c-0.34.69-.69,1.38-1.03,2.07h-2.07l-12.42,13.455h-2.07q-6.735,7.245-13.46,14.491c-12.07,8.726-21.05,20.254-33.12,28.981q-6.72,7.245-13.45,14.49h-2.07q-6.735,7.245-13.46,14.491h-2.07c-1.72,2.07-3.45,4.14-5.17,6.21-4.15,4.144-9.29,7.259-13.46,11.386l-10.35,11.385h-2.07q-6.72,7.245-13.45,14.491h-2.07c-0.35.69-.69,1.38-1.04,2.07l-4.14,3.105-8.28,9.315h-2.07c-0.34.69-.69,1.38-1.03,2.07h-1.04q-5.685,6.21-11.38,12.421h-2.07v1.035l-4.14,3.105c-3.09,3.08-5.43,7.045-9.32,9.315v1.035h1.04q3.615,4.14,7.24,8.281h2.07q5.7,6.208,11.39,12.42h2.07c1.72,2.07,3.45,4.141,5.17,6.21h2.07q4.665,5.175,9.32,10.351h2.07l10.35,11.385h2.07l6.21,7.245h2.07q4.65,5.175,9.31,10.351c1.04,0.345,2.07.69,3.11,1.035,0.34,0.69.69,1.38,1.03,2.07l4.14,3.105,4.14,5.175h2.07l6.21,7.246h2.07q4.665,5.173,9.32,10.35h2.07q5.685,6.21,11.38,12.42h2.07c1.04,1.38,2.07,2.761,3.11,4.141h1.03c0.35,0.69.69,1.38,1.04,2.07h2.07l10.35,11.385h2.07q4.65,5.175,9.31,10.35h2.07l6.21,7.246h2.07l10.35,11.385h2.07l10.35,11.386h2.07c1.73,2.069,3.45,4.14,5.18,6.21h2.07q5.175,5.692,10.35,11.385h2.07q4.65,5.175,9.31,10.351h2.07l6.21,7.245h2.07l10.35,11.385h2.07l10.35,11.386h2.07c1.73,2.07,3.45,4.14,5.18,6.21h2.07l10.35,11.386h2.07v1.035a8.291,8.291,0,0,0,4.14,2.07c1.03-1.38,2.07-2.761,3.1-4.14h2.07l2.07-3.106h2.07c1.04-1.379,2.07-2.76,3.11-4.14h2.07l2.07-3.105h2.07l2.07-3.105h2.07l2.07-3.105h2.07l2.07-3.105c1.03-.345,2.07-0.69,3.1-1.035,0.35-.69.69-1.38,1.04-2.07h2.07c0.34-.69.69-1.38,1.03-2.07h2.07l2.07-3.106h2.07c0.35-.69.69-1.38,1.04-2.07h2.07c0.34-.69.69-1.38,1.03-2.07,1.04-.345,2.07-0.69,3.11-1.035l2.07-3.105h2.07c0.34-.69.69-1.38,1.03-2.07h2.07l2.07-3.105h2.07c0.35-.69.69-1.38,1.04-2.07,1.03-.345,2.07-0.69,3.1-1.035v-1.035h2.07c0.35-.69.69-1.38,1.04-2.07h2.07c0.34-.69.69-1.38,1.03-2.07h2.07c0.35-.69.69-1.381,1.04-2.07h2.07c0.34-.69.69-1.38,1.03-2.071h2.07c0.35-.69.69-1.38,1.04-2.07h2.07c0.34-.69.69-1.38,1.03-2.07l4.14-1.035v-1.035c1.04-.345,2.07-0.69,3.11-1.035,0.34-.69.69-1.38,1.03-2.07l4.14-1.035c0.35-.69.69-1.38,1.04-2.07l4.14-1.035c0.34-.69.69-1.38,1.03-2.07l4.14-1.035c0.35-.69.69-1.38,1.04-2.07l6.21-2.07c0.34-.69.69-1.38,1.03-2.07l6.21-2.07c0.35-.69.69-1.381,1.04-2.071H2809v-1.035h2.07v-1.035h2.07v-1.035h2.07v-1.035l4.14-1.035c26.95-16.936,59.44-28.078,90.04-41.4h3.11v-1.035h3.1v-1.035h3.11V817.5h3.1v-1.036h3.11v-1.035h3.1V814.4h3.11v-1.035h3.1v-1.035h3.11v-1.035h3.1v-1.035h3.11v-1.035l7.24-1.035v-1.035l14.49-3.105v-1.035q45.03-10.35,90.05-20.7l56.92-8.28L3137.09,773c5.04-1.4,13.96.546,19.67-1.035,9.24-2.563,24.12-1.032,35.19-1.035,6.48,0,14.82-.326,19.66,1.035h19.67V773h13.45v1.035h11.39v1.035h9.31c6.71,1.939,16.16,2.216,22.77,4.14h7.25c8.54,2.535,19.59,3.6,27.94,6.21h5.18v1.035l9.31,1.035v1.035h5.18v1.035h4.14v1.036h4.14v1.035h4.14v1.035h5.17c16.82,5.47,36.6,8.668,52.79,14.49h4.14v1.035h3.1v1.035h4.14v1.035c2.07,0.345,4.15.69,6.21,1.035v1.035h3.11v1.035h3.11V814.4h3.1v1.035h3.11v1.035h3.1V817.5h3.11v1.035l9.31,2.07v1.035h2.07v1.035q4.65,1.035,9.32,2.07v1.035h2.06v1.035h3.11v1.035h2.07v1.035h3.11v1.035h2.07v1.035h3.1v1.035l4.14,1.035v1.035h3.11V835.1h2.07v1.035h3.1v1.035l4.14,1.035v1.035h2.07v1.035h3.11v1.036c2.06,0.689,4.14,1.38,6.21,2.069v1.036l5.17,1.035v1.035l6.21,2.07v1.035h2.07v1.035h2.07v1.035h2.07v1.035h2.07v1.035h2.07v1.035h2.07V855.8h2.07v1.035h2.07v1.035h2.07V858.9h2.07v1.035h2.07c0.35,0.69.69,1.38,1.04,2.07l4.14,1.035v1.035h2.07v1.035h2.07v1.035h2.07v1.035h2.07c0.34,0.69.69,1.381,1.03,2.071q3.105,1.033,6.21,2.07c0.35,0.69.69,1.38,1.04,2.07l6.21,2.07c0.34,0.69.69,1.38,1.03,2.07l4.14,1.035c0.35,0.69.69,1.38,1.04,2.07l4.14,1.035c0.34,0.69.69,1.38,1.03,2.07l4.14,1.035v1.035c1.04,0.345,2.07.69,3.11,1.035,0.34,0.69.69,1.38,1.03,2.07l4.14,1.035c0.35,0.69.69,1.38,1.04,2.07h2.07c0.34,0.69.69,1.38,1.03,2.07h2.07v1.036c1.04,0.344,2.07.69,3.11,1.035,0.34,0.689.69,1.38,1.03,2.07h2.07c0.35,0.69.69,1.38,1.04,2.07h2.07c0.34,0.69.69,1.38,1.03,2.07h2.07v1.035c1.04,0.345,2.07.69,3.11,1.035,0.34,0.69.69,1.38,1.03,2.07h2.07l2.07,3.105h2.07c0.35,0.69.69,1.38,1.04,2.07h2.07c0.34,0.69.69,1.38,1.03,2.07,1.04,0.345,2.07.69,3.11,1.035l2.07,3.1h2.07c0.34,0.69.69,1.38,1.03,2.07h2.07l2.07,3.106h2.07c0.35,0.69.69,1.38,1.04,2.07h2.07c0.34,0.69.69,1.38,1.03,2.07,1.04,0.345,2.07.69,3.11,1.035l2.07,3.105h2.07l2.07,3.105h2.07l2.07,3.105h2.07l2.07,3.105h2.07c1.03,1.38,2.07,2.761,3.1,4.14h2.07l2.07,3.106h2.07l4.14,5.175h2.07l4.14,5.175h2.07l4.14,5.175h2.07q3.63,4.14,7.25,8.28h2.07q3.615,4.14,7.24,8.281h2.07c0.35,1.035.69,2.07,1.04,3.105,1.03,0.69,2.07,1.38,3.1,2.07v2.07l2.07,1.035v2.07l2.07,1.035v4.14h1.04v4.141h1.03v2.07c0.69,0.34,1.38.69,2.07,1.03v2.07c1.04,0.69,2.07,1.38,3.11,2.07v2.07c0.69,0.35,1.38.69,2.07,1.04v2.07h1.03c0.35,1.38.69,2.76,1.04,4.14h1.03c0.35,3.1.69,6.21,1.04,9.32h1.03v4.14h1.04v4.14h1.03c2.3,7.75-2.5,19.98-4.14,24.84v4.14h-1.03v4.14h-1.04v3.1h-1.03v3.11h-1.04v2.07h-1.03v3.1h-1.04c-0.34,1.38-.69,2.76-1.03,4.14h-1.04v2.07c-0.69.35-1.38,0.69-2.07,1.04-0.34,1.38-.69,2.76-1.03,4.14h-1.04c-0.34,1.03-.69,2.07-1.03,3.1-0.69.35-1.38,0.69-2.07,1.04v2.07h-1.04c-0.34,1.03-.69,2.07-1.03,3.1-0.69.35-1.38,0.69-2.07,1.04v2.07c-1.04.69-2.07,1.38-3.11,2.07v2.07c-1.03.69-2.07,1.38-3.1,2.07v2.07c-1.04.69-2.07,1.38-3.11,2.07v2.07c-2.07,1.72-4.14,3.45-6.21,5.17v2.07q-3.615,3.1-7.24,6.21c-0.69,1.04-1.38,2.07-2.07,3.11h-2.07q-3.63,4.14-7.25,8.28h-2.07c-1.72,2.07-3.45,4.14-5.17,6.21h-2.07q-3.105,3.615-6.21,7.25c-12.51,9.03-22.69,19.94-35.19,28.98-1.73,2.07-3.45,4.14-5.18,6.21-1.03.34-2.07,0.69-3.1,1.03q-3.1,3.63-6.21,7.25h-2.07q-3.105,3.615-6.21,7.24h-2.07c-0.69,1.04-1.38,2.07-2.07,3.11-1.38,1.03-2.76,2.07-4.14,3.1v1.04h-2.07q-3.105,3.615-6.21,7.24c-18.41,13.33-33.34,30.16-51.75,43.47q-3.105,3.63-6.21,7.25h-2.07q-3.105,3.615-6.21,7.25h-2.07c-2.07,2.41-4.15,4.83-6.21,7.24h-2.07q-2.595,3.105-5.18,6.21c-1.03.35-2.07,0.69-3.1,1.04q-3.1,3.615-6.21,7.24h-2.07c-2.07,2.42-4.15,4.83-6.21,7.25h-2.07c-0.69,1.03-1.39,2.07-2.07,3.1-1.38,1.04-2.77,2.07-4.14,3.11v1.03h-2.08c-2.06,2.42-4.14,4.83-6.21,7.25h-2.06c-0.69,1.03-1.38,2.07-2.07,3.1-1.04.69-2.08,1.38-3.11,2.07v1.04h-2.07q-3.1,3.615-6.21,7.24h-2.07q-3.105,3.63-6.21,7.25c-12.49,9.04-22.69,19.94-35.19,28.98q-2.58,3.1-5.18,6.21c-1.03.34-2.07,0.69-3.1,1.03q-3.1,3.63-6.21,7.25h-2.07q-3.105,3.615-6.21,7.24h-2.07c-0.69,1.04-1.38,2.07-2.07,3.11-1.38,1.03-2.76,2.07-4.14,3.1v1.04h-2.07q-3.105,3.615-6.21,7.24c-18.41,13.33-33.34,30.16-51.75,43.48-0.69,1.03-1.38,2.07-2.07,3.1-1.38,1.04-2.76,2.07-4.14,3.11v1.03h-2.07q-3.105,3.63-6.21,7.25h-2.07c-0.69,1.03-1.38,2.07-2.07,3.1-1.38,1.04-2.76,2.07-4.14,3.11v1.03h-2.07q-3.105,3.63-6.21,7.25c-18.01,13.04-32.69,29.4-50.72,42.43q-3.105,3.63-6.21,7.25h-2.07q-3.105,3.615-6.21,7.24h-2.07q-3.1,3.63-6.21,7.25h-2.07q-3.105,3.63-6.21,7.25h-2.07q-3.1,3.615-6.21,7.24h-2.07q-3.105,3.63-6.21,7.25h-2.07q-3.1,3.615-6.21,7.24h-2.07q-3.105,3.63-6.21,7.25c-12.49,9.04-22.69,19.94-35.19,28.98q-3.105,3.615-6.21,7.24h-2.07q-3.1,3.63-6.21,7.25c-12.49,9.04-22.69,19.94-35.19,28.98-0.69,1.03-1.38,2.07-2.07,3.1-1.38,1.04-2.76,2.07-4.14,3.11v1.03h-2.07q-3.105,3.63-6.21,7.25c-17.96,13.01-32.73,29.43-50.71,42.44-1.73,2.07-3.45,4.14-5.18,6.21-1.03.34-2.07,0.69-3.1,1.03q-3.105,3.63-6.21,7.25H3016q-3.105,3.615-6.21,7.24h-2.07c-0.69,1.04-1.38,2.07-2.07,3.11-1.38,1.03-2.76,2.07-4.14,3.1v1.04h-2.07q-3.105,3.615-6.21,7.24h-2.07c-0.69,1.04-1.38,2.07-2.07,3.11-1.38,1.03-2.76,2.07-4.14,3.1v1.04h-2.07q-3.105,3.615-6.21,7.24h-2.07q-3.1,3.63-6.21,7.25c-12.5,9.05-22.69,19.94-35.19,28.98q-3.1,3.615-6.21,7.25h-2.07q-3.105,3.615-6.21,7.24h-2.07q-3.1,3.63-6.21,7.25h-2.07q-3.105,3.615-6.21,7.24h-2.07c-0.69,1.04-1.38,2.07-2.07,3.11-1.38,1.03-2.76,2.07-4.14,3.1v1.04h-2.07q-3.105,3.615-6.21,7.24c-18,13.03-32.67,29.39-50.72,42.44q-3.1,3.615-6.21,7.24h-2.07q-3.105,3.63-6.21,7.25h-2.07q-3.105,3.615-6.21,7.24h-2.07q-3.105,3.63-6.21,7.25h-2.07q-3.105,3.615-6.21,7.24h-2.07q-3.1,3.63-6.21,7.25h-2.07q-3.105,3.615-6.21,7.25h-2.07c-0.69,1.03-1.38,2.07-2.07,3.1-1.38,1.04-2.76,2.07-4.14,3.11v1.03h-2.07q-3.105,3.63-6.21,7.25h-2.07c-0.69,1.03-1.38,2.07-2.07,3.1-1.38,1.04-2.76,2.07-4.14,3.11v1.03h-2.07q-3.105,3.63-6.21,7.25h-2.07q-3.105,3.615-6.21,7.24h-2.07c-0.34.69-.69,1.38-1.03,2.07h-1.04c-0.69,1.04-1.38,2.07-2.07,3.11h-2.07c-0.69,1.03-1.38,2.07-2.07,3.1-1.03.35-2.07,0.69-3.1,1.04-0.35.69-.69,1.38-1.04,2.07h-2.07c-0.69,1.03-1.38,2.07-2.07,3.1h-2.07c-0.34.69-.69,1.38-1.03,2.07q-10.35,5.7-20.7,11.39v1.03h1.03c2.96,5.02,8.42,8.38,12.42,12.42,0.69,1.04,1.38,2.07,2.07,3.11h1.04v2.07c1.38,1.03,2.76,2.07,4.14,3.1q4.14,4.665,8.28,9.32h2.07q7.755,8.28,15.52,16.56h2.07q3.63,4.14,7.25,8.28h2.07c1.72,2.07,3.45,4.14,5.17,6.21h2.07c1.73,2.07,3.45,4.14,5.18,6.21h2.07c1.03,1.38,2.07,2.76,3.1,4.14h2.07c1.04,1.38,2.07,2.76,3.11,4.14h2.07c1.03,1.38,2.07,2.76,3.1,4.14h2.07c1.04,1.38,2.07,2.76,3.11,4.14h2.07c0.69,1.04,1.38,2.07,2.07,3.11h2.07c0.69,1.03,1.38,2.07,2.07,3.1h2.07c0.34,0.69.69,1.38,1.03,2.07h2.07c0.69,1.04,1.38,2.07,2.07,3.11h2.07c0.35,0.69.69,1.38,1.04,2.07,1.03,0.34,2.07.69,3.1,1.03v1.04h2.07c0.35,0.69.69,1.38,1.04,2.07h2.07c0.34,0.69.69,1.38,1.03,2.07h2.07c0.35,0.69.69,1.38,1.04,2.07h2.07c0.34,0.69.69,1.38,1.03,2.07h2.07c0.35,0.69.69,1.38,1.04,2.07h2.07c0.34,0.69.69,1.38,1.03,2.07h2.07c0.35,0.69.69,1.38,1.04,2.07,1.38,0.34,2.76.69,4.14,1.03,0.34,0.69.69,1.38,1.03,2.07h2.07c0.35,0.69.69,1.38,1.04,2.07,1.38,0.35,2.76.69,4.14,1.04,0.34,0.69.69,1.38,1.03,2.07,1.38,0.34,2.76.69,4.14,1.03,0.35,0.69.69,1.38,1.04,2.07,1.38,0.35,2.76.69,4.14,1.04,0.34,0.69.69,1.38,1.03,2.07,1.38,0.34,2.76.69,4.14,1.03v1.04h2.07v1.03h2.07c0.35,0.69.69,1.38,1.04,2.07h2.07v1.04h2.07V2132h2.07v1.04h2.07c0.34,0.69.69,1.38,1.03,2.07h2.07v1.03h2.07v1.04h2.07v1.03h2.07v1.04c1.38,0.34,2.76.69,4.14,1.03v1.04c1.38,0.34,2.76.69,4.14,1.03v1.04h2.07v1.03h2.07v1.04h2.07v1.03h2.07v1.04l6.21,2.07v1.03c1.38,0.35,2.76.69,4.14,1.04v1.03h3.11v1.04h2.07v1.03c1.38,0.35,2.76.69,4.14,1.04v1.03h3.1v1.04h2.07v1.03h2.07v1.04h2.07v1.03h3.11v1.04c1.38,0.34,2.76.69,4.14,1.03v1.04h3.1v1.03h2.07v1.04c1.73,0.34,3.45.69,5.18,1.03v1.04c2.07,0.34,4.14.69,6.21,1.03v1.04h2.07v1.03h3.1v1.04H2957v1.03l9.32,2.07v1.04h2.07v1.03c2.07,0.35,4.14.69,6.21,1.04v1.03h3.1v1.04h3.11v1.03h3.1v1.04h3.11v1.03h3.1v1.04h3.11v1.03h4.14v1.04h3.1v1.03h3.11v1.04c2.41,0.34,4.83.69,7.24,1.04V2191l11.39,2.07v1.04h4.14v1.03l13.45,2.07v1.04h5.18c8.35,2.6,19.4,3.69,27.94,6.21q15.525,1.545,31.05,3.1v1.04h9.32v1.03h10.35v1.04h13.45c5.05,1.4,13.96-.55,19.67,1.03,5.14,1.42,13.91,1.03,20.7,1.04,10.72,0,25.26,1.51,34.15-1.04h10.35q11.385-.51,22.77-1.03v-1.04l28.98-2.07q32.085-5.685,64.17-11.38v-1.04c2.76-.34,5.53-0.69,8.28-1.03v-1.04l11.39-2.07v-1.03c2.41-.35,4.83-0.7,7.24-1.04v-1.04h3.11v-1.03h3.1v-1.04h4.14v-1.03h3.11v-1.04h3.1v-1.03h3.11v-1.04h3.1v-1.03h3.11v-1.04h3.1v-1.03c2.07-.35,4.14-0.69,6.21-1.04v-1.03h2.07v-1.04q4.665-1.035,9.32-2.07v-1.03h2.07v-1.04c2.07-.34,4.14-0.69,6.21-1.03v-1.04h2.07v-1.03h3.1v-1.04h2.07v-1.03H3430v-1.04h2.07v-1.03h3.1v-1.04c1.38-.34,2.77-0.69,4.14-1.03v-1.04h3.11v-1.03c1.38-.35,2.76-0.69,4.14-1.04v-1.03h2.07v-1.04h3.1v-1.03c1.38-.35,2.77-0.69,4.15-1.04v-1.03h2.06v-1.04h3.11v-1.03h2.07v-1.04c1.38-.34,2.76-0.69,4.14-1.03v-1.04c1.38-.34,2.76-0.69,4.14-1.03v-1.04h2.07v-1.03h2.07v-1.04h2.07v-1.03h2.07v-1.04q8.28-3.615,16.56-7.24c0.35-.69.69-1.38,1.04-2.07h2.07V2132h2.07v-1.03h2.07v-1.04h2.07c0.34-.69.69-1.38,1.03-2.07l6.21-2.07v-1.03h2.07c0.35-.69.69-1.38,1.04-2.07,1.38-.35,2.76-0.69,4.14-1.04,0.34-.69.69-1.38,1.03-2.07,1.38-.34,2.76-0.69,4.14-1.03,0.35-.69.69-1.38,1.04-2.07,1.38-.35,2.76-0.69,4.14-1.04v-1.03c1.03-.35,2.07-0.69,3.1-1.04,0.35-.69.69-1.38,1.04-2.07,1.37-.34,2.76-0.69,4.14-1.03v-1.04c1.03-.34,2.07-0.69,3.1-1.03,0.35-.69.69-1.38,1.04-2.07,1.38-.35,2.76-0.69,4.14-1.04v-1.03c1.03-.35,2.07-0.69,3.1-1.04,0.35-.69.69-1.38,1.04-2.07h2.07c0.69-1.03,1.38-2.07,2.07-3.1h2.07c0.34-.69.69-1.38,1.03-2.07h2.07v-1.04c1.04-.34,2.07-0.69,3.11-1.03,0.34-.69.69-1.38,1.03-2.07h2.07c0.69-1.04,1.38-2.07,2.07-3.11h2.07c0.35-.69.69-1.38,1.04-2.07h2.07c0.69-1.03,1.38-2.07,2.07-3.1h2.07c0.69-1.04,1.38-2.07,2.07-3.11h2.07c1.03-1.38,2.07-2.76,3.1-4.14h2.07c1.04-1.38,2.07-2.76,3.11-4.14h2.07c1.03-1.38,2.07-2.76,3.1-4.14h2.07c0.69-1.03,1.38-2.07,2.07-3.1,1.04-.35,2.07-0.69,3.11-1.04,1.72-2.07,3.45-4.14,5.17-6.21h2.07c1.73-2.07,3.45-4.14,5.18-6.21h2.07q3.1-3.63,6.21-7.25c1.03-.34,2.07-0.69,3.1-1.03q7.245-7.77,14.49-15.53c1.04-.34,2.07-0.69,3.11-1.03,1.03-1.38,2.07-2.76,3.1-4.14q4.665-4.14,9.32-8.28v-2.07q8.28-7.77,16.56-15.53v-2.07q4.14-3.615,8.28-7.24v-2.07c2.07-1.73,4.14-3.45,6.21-5.18v-2.07c2.07-1.72,4.14-3.45,6.21-5.17v-2.07c1.38-1.04,2.76-2.07,4.14-3.11v-2.07c1.38-1.03,2.76-2.07,4.14-3.1v-2.07c1.38-1.04,2.76-2.07,4.14-3.11v-2.07c0.69-.34,1.38-0.69,2.07-1.03,0.34-1.04.69-2.07,1.03-3.11,1.38-1.03,2.76-2.07,4.14-3.1v-2.07c0.69-.35,1.38-0.69,2.07-1.04v-2.07c1.04-.69,2.07-1.38,3.11-2.07v-2.07c1.03-.69,2.07-1.38,3.1-2.07v-2.07c0.69-.34,1.38-0.69,2.07-1.03v-2.07c0.69-.35,1.38-0.69,2.07-1.04v-2.07h1.04c0.34-1.03.69-2.07,1.03-3.11,0.69-.34,1.38-0.69,2.07-1.03v-2.07c1.04-.69,2.07-1.38,3.11-2.07,0.34-1.38.69-2.76,1.03-4.14,0.69-.35,1.38-0.69,2.07-1.04v-2.07c0.69-.34,1.38-0.69,2.07-1.03v-2.07c0.69-.35,1.38-0.69,2.07-1.04v-2.07c0.69-.34,1.38-0.69,2.07-1.03,0.35-1.38.69-2.76,1.04-4.14,0.69-.35,1.38-0.69,2.07-1.04,0.34-1.38.69-2.76,1.03-4.14,0.69-.34,1.38-0.69,2.07-1.03,0.35-1.38.69-2.76,1.04-4.14,0.69-.35,1.38-0.69,2.07-1.04,0.34-1.38.69-2.76,1.03-4.14,0.69-.34,1.38-0.69,2.07-1.03l2.07-6.21c0.69-.35,1.38-0.69,2.07-1.04v-2.07h1.04v-2.07h1.03v-2.07h1.04v-2.07h1.03v-2.07c0.69-.34,1.38-0.69,2.07-1.03,0.35-1.38.69-2.76,1.04-4.14h1.03v-2.07h1.04v-2.07h1.03v-2.07h1.04v-2.07h1.03c0.35-1.38.69-2.76,1.04-4.14h1.03c0.35-1.38.69-2.76,1.04-4.14h1.03v-2.07h1.04v-2.07h1.03v-2.07h1.04v-2.07h1.03l2.07-6.21h1.04c0.34-1.73.69-3.45,1.03-5.18h1.04l2.07-6.21h1.03v-3.1h1.04c0.34-1.38.69-2.76,1.03-4.14h1.04v-3.11h1.03c0.35-1.38.69-2.76,1.04-4.14h1.03v-3.1h1.04v-2.07h1.03c0.35-1.73.69-3.46,1.04-5.18h1.03v-3.11h1.04v-2.07h1.03c0.35-2.07.69-4.14,1.04-6.21h1.03v-2.07h1.04c0.69-3.1,1.38-6.21,2.07-9.31h1.03v-2.07h1.04v-3.11h1.03c0.69-3.1,1.38-6.21,2.07-9.31h1.04v-3.11h1.03v-3.1h1.04V1748h1.03v-3.1h1.04l2.07-10.35h1.03c0.35-2.42.69-4.83,1.04-7.25h1.03q1.035-5.685,2.07-11.38h1.04q1.545-8.805,3.1-17.6h1.04v-5.17h1.03v-5.18h1.04v-4.14h1.03v-4.14h1.04c0.34-2.76.69-5.52,1.03-8.28h1.04v-2.07c1.03-.69,2.07-1.38,3.1-2.07v-2.07c0.69-.35,1.38-0.69,2.07-1.04,0.35-1.03.69-2.07,1.04-3.1h2.07c0.34-.69.69-1.38,1.03-2.07h2.07c0.69-1.04,1.38-2.07,2.07-3.11l10.35-2.07v-1.03c2.76-.35,5.52-0.69,8.28-1.04v-1.03h1.04v1.03h7.24v1.04h7.25c6.69,1.96,16.15,2.21,22.77,4.14h8.28v1.03h5.17v1.04h4.14v1.03h4.14v1.04h5.18c0.34,0.69.69,1.38,1.03,2.07h2.07c0.35,0.69.69,1.38,1.04,2.07h2.07v1.03A8.49,8.49,0,0,0,3942.33,1668.31ZM1101.24,316.543c-0.12,6.525-2.48,13.513-4.14,18.631v5.175h-1.03v4.14h-1.04v5.176H1094v5.175h-1.04v4.14h-1.03c-0.35,3.1-.69,6.211-1.04,9.315h-1.03q-1.56,9.833-3.11,19.666c-6.21,19.064-8.34,41.974-14.49,61.067-0.34,3.45-.69,6.9-1.03,10.351-3.71,11.421-5.64,25.827-9.32,37.261-0.34,3.45-.69,6.9-1.03,10.351-3.71,11.422-5.64,25.826-9.32,37.261-0.34,3.45-.69,6.9-1.03,10.35h-1.04c-0.34,3.105-.69,6.211-1.03,9.316h-1.04v4.14h-1.03v5.175h-1.04c-0.34,3.105-.69,6.211-1.03,9.316h-1.04v5.175h-1.03v4.14h-1.04v5.175h-1.03v5.175h-1.04v4.14h-1.03v5.176c-7.71,23.75-9.97,51.806-17.6,75.558q-1.545,9.831-3.1,19.665c-6.75,20.774-8.84,45.445-15.53,66.243q-1.545,9.314-3.1,18.631h-1.035l-1.035,10.35h-1.035l-1.035,9.315H993.6v4.14h-1.035v5.176h-1.035v5.175c-6.185,19.076-8.356,41.969-14.49,61.067q-2.07,11.9-4.14,23.806h-1.035l-1.035,10.351H969.8q-0.518,4.656-1.035,9.315h-1.035v4.14h-1.035v5.175h-1.035v5.175c-6.185,19.077-8.356,41.969-14.49,61.068q-1.552,9.825-3.105,19.67c-5.234,16.12-7.246,35.64-12.42,51.75l-1.035,10.35c-3.7,11.42-5.643,25.82-9.315,37.26l-1.035,10.35h-1.035q-0.517,4.65-1.035,9.32h-1.035v4.14h-1.035v5.17h-1.035c-0.345,3.11-.69,6.21-1.035,9.32h-1.035v5.17h-1.035c-0.345,3.11-.691,6.21-1.035,9.32h-1.035v4.14h-1.036v5.17h-1.034v5.18c-6.184,19.07-8.357,41.97-14.491,61.06q-2.069,11.91-4.139,23.81h-1.035q-0.519,5.175-1.036,10.35H890.1c-0.345,3.11-.691,6.21-1.035,9.32h-1.036v4.14H887v5.17h-1.036c-0.345,3.11-.69,6.21-1.035,9.32h-1.034v5.17h-1.036v4.14h-1.035v5.18h-1.034v5.17h-1.036v4.14h-1.035c-0.344,3.11-.69,6.21-1.034,9.32h-1.036l-1.035,10.35h-1.034c-0.346,3.1-.691,6.21-1.036,9.31h-1.035v4.14h-1.034v5.18h-1.036v5.17H869.4c-0.344,3.11-.69,6.21-1.034,9.32h-1.036v4.14H866.3v5.17h-1.034v5.18c-7.672,23.74-9.972,51.76-17.6,75.56v5.17h-1.035v4.14H845.6v5.18c-3.133,9.98-4.985,22.34-8.28,32.08q-1.034,5.7-2.07,11.39h-1.035l-2.07,6.21h-1.035v2.07h-1.035l-1.035,4.14c-0.69.35-1.38,0.69-2.07,1.04v2.07l-3.105,2.07v2.07l-3.105,2.07v2.07c-1.38,1.03-2.76,2.07-4.14,3.1q-3.1,3.63-6.21,7.25h-2.07l-1.035,2.07h-2.07c-0.69,1.03-1.38,2.07-2.07,3.1h-2.07l-1.035,2.07-6.21,2.07v1.04h-2.07v1.03l-12.42,2.07v1.04h-4.14v1.03q-7.761.525-15.525,1.04v-1.04h-5.175v-1.03h-4.14v-1.04c-2.76-.34-5.52-0.69-8.28-1.03v-1.04h-3.105v-1.03h-2.07v-1.04c-1.38-.34-2.76-0.69-4.14-1.03l-1.035-2.07h-2.07c-4.077-2.72-7.969-6.88-11.385-10.35l-3.105-2.07v-2.07l-3.105-2.07v-2.07l-3.105-2.07-1.035-4.14c-0.69-.35-1.38-0.69-2.07-1.04v-2.07h-1.035v-2.07H703.8l-3.105-14.49c-1.668-5.09-6.516-20.83-4.14-28.98,5.919-20.31,8.127-43.3,14.49-63.14v-5.17h1.035v-4.14h1.035v-5.18h1.035v-5.17h1.035v-4.14h1.035v-5.18h1.035v-4.14h1.035v-5.18h1.035v-5.17h1.035v-4.14H721.4v-5.18h1.035v-4.14h1.035v-5.17H724.5v-5.18h1.035v-4.14h1.035c0.345-3.1.69-6.21,1.035-9.31h1.035l1.035-10.35c3.7-11.43,5.639-25.83,9.315-37.26v-5.18h1.035v-4.14h1.035v-5.17c3.231-10.23,5.011-22.96,8.28-33.13v-5.17h1.035v-4.14h1.035v-5.18h1.035v-5.17h1.035v-4.14h1.035c0.345-3.11.69-6.21,1.035-9.32h1.035l1.035-10.35h1.035c0.345-3.1.69-6.21,1.035-9.31h1.035v-4.14h1.035v-5.18H762.8v-5.17c6.185-19.08,8.356-41.97,14.49-61.07q2.07-11.895,4.14-23.81h1.035l1.035-10.35h1.035c0.345-3.1.69-6.21,1.035-9.31H786.6v-4.14h1.035v-5.18h1.035v-5.17h1.035c0.345-3.11.69-6.21,1.035-9.32h1.035v-4.14h1.035v-5.17h1.035v-5.18c6.185-19.07,8.356-41.97,14.49-61.066q2.07-11.9,4.14-23.806h1.035l1.035-10.35h1.035l1.035-9.315h1.035v-4.14h1.035v-5.176h1.035V938.6c7.162-22.09,9.457-48.266,16.56-70.382l2.07-14.491h1.035l3.105-19.666c7.692-23.725,9.948-51.776,17.6-75.558q1.553-9.831,3.105-19.665c6.185-19.077,8.356-41.969,14.491-61.068q0.516-5.175,1.034-10.35c3.7-11.424,5.643-25.826,9.315-37.262q0.517-5.173,1.036-10.35c3.7-11.423,5.642-25.826,9.315-37.261q0.516-5.175,1.035-10.351h1.034q0.519-4.658,1.036-9.315h1.035v-4.14h1.034v-5.176h1.036v-5.175h1.035q0.516-4.658,1.034-9.315H907.7v-4.14h1.035v-5.175h1.034v-5.176c7.161-22.091,9.459-48.265,16.561-70.382q0.516-5.175,1.035-10.351H928.4l1.035-9.315h1.035V430.4H931.5v-5.176h1.035q0.516-4.656,1.035-9.315h1.035v-5.175h1.035v-4.14h1.035v-5.175h1.035v-5.176h1.035V392.1h1.035q0.518-4.656,1.035-9.315h1.035l1.035-10.35h1.035l1.035-9.316h1.035v-4.14h1.035v-5.175h1.035V348.63H949.1l1.035-9.316h1.035v-4.14H952.2V330h1.035v-5.175c7.673-23.735,9.968-51.766,17.595-75.558l3.105-19.666h1.035l1.035-9.315h1.035l1.035-9.316h1.035v-4.14h1.035v-4.14h1.035q1.035-5.692,2.07-11.385h1.035l2.07-6.211h1.035l1.035-4.14,2.07-1.035,1.035-4.14,3.105-2.07v-2.07l3.105-2.07V167.5q4.135-3.623,8.277-7.246l2.07-3.105h2.07c0.35-.69.69-1.38,1.04-2.07h2.07l2.07-3.1h2.07c0.34-.69.69-1.38,1.03-2.07l4.14-1.035v-1.035l4.14-1.035v-1.035l12.42-2.07v-1.035h4.14v-1.035h4.14v-1.035l15.53,1.035,16.56-1.035c10.43,3.084,23.7,5.038,32.08,10.35,0.35,0.69.69,1.38,1.04,2.07h2.07c0.34,0.69.69,1.38,1.03,2.07h2.07c0.35,0.69.69,1.38,1.04,2.07h2.07c0.34,0.69.69,1.38,1.03,2.07h2.07c0.35,0.69.69,1.38,1.04,2.07h2.07c0.34,0.69.69,1.381,1.03,2.071h2.07c0.35,0.689.69,1.38,1.04,2.07h2.07c0.34,0.69.69,1.38,1.03,2.07h2.07c0.35,0.69.69,1.38,1.04,2.07l4.14,1.035c0.34,0.69.69,1.38,1.03,2.07h2.07c0.35,0.69.69,1.38,1.04,2.07h2.07c0.34,0.69.69,1.38,1.03,2.07h2.07v1.035c1.04,0.345,2.07.69,3.11,1.035,0.34,0.69.69,1.38,1.03,2.07h2.07c0.35,0.69.69,1.38,1.04,2.07h2.07c0.34,0.69.69,1.38,1.03,2.07h2.07c0.35,0.69.69,1.38,1.04,2.07h2.07c0.34,0.69.69,1.381,1.03,2.071h2.07c0.35,0.689.69,1.38,1.04,2.07h2.07v1.035c1.03,0.345,2.07.69,3.1,1.035,0.35,0.69.69,1.38,1.04,2.07h2.07c0.34,0.69.69,1.38,1.03,2.07,1.04,0.345,2.07.69,3.11,1.035v1.035l4.14,1.035c0.34,0.69.69,1.38,1.03,2.07h2.07c0.35,0.69.69,1.38,1.04,2.07h2.07c0.34,0.69.69,1.38,1.03,2.07h2.07c0.35,0.69.69,1.38,1.04,2.07h2.07c0.34,0.69.69,1.38,1.03,2.07h2.07c0.35,0.69.69,1.38,1.04,2.07h2.07c0.34,0.69.69,1.38,1.03,2.07h2.07v1.036c1.04,0.344,2.07.69,3.11,1.035,0.34,0.69.69,1.38,1.03,2.07h2.07c0.35,0.69.69,1.38,1.04,2.07h2.07c0.34,0.69.69,1.38,1.03,2.07h2.07c0.35,0.69.69,1.38,1.04,2.07h2.07c0.34,0.69.69,1.38,1.03,2.07l4.14,1.035c0.35,0.69.69,1.38,1.04,2.07h2.07c0.34,0.69.69,1.38,1.03,2.07h2.07c0.35,0.69.69,1.38,1.04,2.07h2.07c0.34,0.69.69,1.38,1.03,2.07H1242c0.35,0.69.69,1.381,1.04,2.07h2.07c0.34,0.69.69,1.381,1.03,2.07h2.07c0.35,0.69.69,1.381,1.04,2.071h2.07v1.035c1.03,0.345,2.07.69,3.1,1.035,0.35,0.69.69,1.38,1.04,2.07h2.07c0.34,0.69.69,1.38,1.03,2.07h2.07c0.35,0.69.69,1.38,1.04,2.07h2.07c0.34,0.69.69,1.38,1.03,2.07h2.07c0.35,0.69.69,1.38,1.04,2.07l4.14,1.035v1.035c1.03,0.345,2.07.69,3.1,1.035,0.35,0.69.69,1.38,1.04,2.07h2.07c0.34,0.69.69,1.38,1.03,2.07h2.07c0.35,0.69.69,1.38,1.04,2.07h2.07c0.34,0.69.69,1.381,1.03,2.07h2.07c0.35,0.69.69,1.381,1.04,2.071h2.07v1.035c1.03,0.345,2.07.69,3.1,1.035,0.35,0.69.69,1.38,1.04,2.07h2.07c0.34,0.69.69,1.38,1.03,2.07h2.07c0.35,0.69.69,1.38,1.04,2.07h2.07c0.34,0.69.69,1.38,1.03,2.07h2.07c0.35,0.69.69,1.38,1.04,2.07h2.07c0.34,0.69.69,1.38,1.03,2.07h2.07c0.35,0.69.69,1.38,1.04,2.07l4.14,1.035c0.34,0.69.69,1.38,1.03,2.07h2.07c0.35,0.69.69,1.38,1.04,2.07h2.07c0.34,0.69.69,1.381,1.03,2.071h2.07c0.35,0.689.69,1.38,1.04,2.07h2.07c0.34,0.689.69,1.38,1.03,2.07h2.07c0.35,0.69.69,1.38,1.04,2.07h2.07v1.035c1.03,0.345,2.07.69,3.1,1.035,0.35,0.69.69,1.38,1.04,2.07h2.07c0.34,0.69.69,1.38,1.03,2.07h2.07v1.035c1.04,0.345,2.07.69,3.11,1.035,0.34,0.69.69,1.38,1.03,2.07h2.07c0.35,0.69.69,1.38,1.04,2.07,1.03,0.345,2.07.69,3.1,1.035v1.035l4.14,1.035c0.35,0.69.69,1.38,1.04,2.07h2.07c0.34,0.69.69,1.38,1.03,2.07h2.07c0.35,0.69.69,1.381,1.04,2.071h2.07c0.34,0.689.69,1.38,1.03,2.07h2.07c0.35,0.69.69,1.38,1.04,2.07h2.07c0.34,0.69.69,1.38,1.03,2.07h2.07v1.035c1.04,0.345,2.07.69,3.11,1.035,0.34,0.69.69,1.38,1.03,2.07h2.07c0.35,0.69.69,1.38,1.04,2.07h2.07c0.34,0.69.69,1.38,1.03,2.07h2.07c0.35,0.69.69,1.38,1.04,2.07h2.07c0.34,0.69.69,1.38,1.03,2.07h2.07c0.35,0.69.69,1.38,1.04,2.07l4.14,1.035c0.34,0.69.69,1.38,1.03,2.07h2.07c0.35,0.69.69,1.381,1.04,2.071h2.07c0.34,0.69.69,1.38,1.03,2.07h2.07c0.35,0.69.69,1.38,1.04,2.07h2.07c0.34,0.69.69,1.38,1.03,2.07h2.07c0.35,0.69.69,1.38,1.04,2.07h2.07c0.34,0.69.69,1.38,1.03,2.07h2.07v1.035c1.04,0.345,2.07.69,3.11,1.035,0.34,0.69.69,1.38,1.03,2.07h2.07c0.35,0.69.69,1.38,1.04,2.07h2.07c0.34,0.69.69,1.38,1.03,2.07h2.07c0.35,0.69.69,1.38,1.04,2.07h2.07c0.34,0.69.69,1.381,1.03,2.07h2.07c0.35,0.69.69,1.381,1.04,2.07l4.14,1.036v1.035c1.03,0.344,2.07.69,3.1,1.035,0.35,0.69.69,1.38,1.04,2.07h2.07c0.34,0.69.69,1.38,1.03,2.07h2.07l2.07,3.1h2.07l2.07,3.105h2.07c0.35,0.69.69,1.38,1.04,2.07l4.14,3.105v2.07c1.03,0.69,2.07,1.38,3.1,2.07,0.35,1.035.69,2.07,1.04,3.105q1.035,0.517,2.07,1.035v2.071l2.07,1.035q1.035,3.1,2.07,6.21h1.03c0.35,1.38.69,2.76,1.04,4.14h1.03v4.14c1.75,5.187,7.64,21.883,5.18,30.016h-1.04v4.141h-1.03v4.14h-1.04c-0.34,3.1-.69,6.21-1.03,9.315h-1.04v3.105h-1.03v3.1h-1.04v2.07h-1.03v2.07q-1.035.517-2.07,1.035v2.071q-1.035.516-2.07,1.035v2.07c-1.04.69-2.07,1.38-3.11,2.07v2.07c-1.03.69-2.07,1.38-3.1,2.07v2.07l-2.07,1.035v1.035h-2.07c-1.04,1.38-2.07,2.76-3.11,4.14h-2.07l-2.07,3.105h-2.07c-0.34.69-.69,1.381-1.03,2.07h-2.07c-0.35.69-.69,1.38-1.04,2.07h-2.07v1.036H1449v1.035h-3.1v1.035h-3.11v1.035h-5.17v1.035h-4.14v1.035h-4.14v1.035h-5.18V510.1h-12.42c-10.43-3.081-23.7-5.04-32.08-10.351-0.35-.689-0.69-1.38-1.04-2.07h-2.07c-0.34-.69-0.69-1.38-1.03-2.07h-2.07c-0.35-.69-0.69-1.38-1.04-2.07h-2.07c-0.34-.69-0.69-1.38-1.03-2.07h-2.07c-0.35-.69-0.69-1.38-1.04-2.07h-2.07c-0.34-.69-0.69-1.38-1.03-2.07h-2.07c-0.35-.69-0.69-1.38-1.04-2.07h-2.07c-0.34-.69-0.69-1.38-1.03-2.07h-2.07c-0.35-.69-0.69-1.38-1.04-2.07l-4.14-1.035c-0.34-.69-0.69-1.381-1.03-2.07h-2.07v-1.035c-1.04-.345-2.07-0.691-3.11-1.036-0.34-.69-0.69-1.38-1.03-2.07h-2.07c-0.35-.69-0.69-1.38-1.04-2.07h-2.07c-0.34-.69-0.69-1.38-1.03-2.07h-2.07c-0.35-.69-0.69-1.38-1.04-2.07h-2.07c-0.34-.69-0.69-1.38-1.03-2.07h-2.07c-0.35-.69-0.69-1.38-1.04-2.07h-2.07c-0.34-.69-0.69-1.38-1.03-2.07h-2.07c-0.35-.69-0.69-1.38-1.04-2.07h-2.07c-0.34-.69-0.69-1.38-1.03-2.07h-2.07c-0.35-.69-0.69-1.38-1.04-2.07h-2.07c-0.34-.69-0.69-1.38-1.03-2.07l-4.14-1.035V451.1c-1.04-.346-2.07-0.691-3.11-1.035-0.34-.69-0.69-1.381-1.03-2.071H1301c-0.35-.69-0.69-1.38-1.04-2.07h-2.07c-0.34-.69-0.69-1.38-1.03-2.07h-2.07c-0.35-.69-0.69-1.38-1.04-2.07h-2.07c-0.34-.69-0.69-1.38-1.03-2.07h-2.07v-1.035c-1.04-.345-2.07-0.69-3.11-1.035-0.34-.69-0.69-1.38-1.03-2.07h-2.07c-0.35-.69-0.69-1.38-1.04-2.07h-2.07c-0.34-.69-0.69-1.38-1.03-2.07h-2.07c-0.35-.69-0.69-1.38-1.04-2.07h-2.07c-0.34-.69-0.69-1.38-1.03-2.07h-2.07c-0.35-.69-0.69-1.381-1.04-2.071h-2.07c-0.34-.689-0.69-1.38-1.03-2.069l-4.14-1.036c-0.35-.69-0.69-1.38-1.04-2.07h-2.07c-0.34-.69-0.69-1.38-1.03-2.07h-2.07c-0.35-.69-0.69-1.38-1.04-2.07h-2.07c-0.34-.69-0.69-1.38-1.03-2.07h-2.07c-0.35-.69-0.69-1.38-1.04-2.07h-2.07c-0.34-.69-0.69-1.38-1.03-2.07h-2.07c-0.35-.69-0.69-1.38-1.04-2.07h-2.07v-1.035c-1.03-.345-2.07-0.69-3.1-1.035-0.35-.69-0.69-1.38-1.04-2.07h-2.07c-0.34-.69-0.69-1.38-1.03-2.07h-2.07c-0.35-.69-0.69-1.38-1.04-2.07h-2.07c-0.34-.69-0.69-1.381-1.03-2.071h-2.07c-0.35-.689-0.69-1.38-1.04-2.07l-4.14-1.035c-0.34-.69-0.69-1.38-1.03-2.07h-2.07v-1.035c-1.04-.345-2.07-0.69-3.11-1.035-0.34-.69-0.69-1.38-1.03-2.07h-2.07c-0.35-.69-0.69-1.38-1.04-2.07h-2.07c-0.34-.69-0.69-1.38-1.03-2.07h-2.07c-0.35-.69-0.69-1.38-1.04-2.07h-2.07c-0.34-.69-0.69-1.38-1.03-2.07h-2.07c-0.35-.69-0.69-1.38-1.04-2.07h-2.07v-1.035c-1.03-.345-2.07-0.69-3.1-1.035-0.35-.69-0.69-1.38-1.04-2.07h-2.07c-0.34-.69-0.69-1.381-1.03-2.071h-2.07c-0.35-.689-0.69-1.38-1.04-2.07h-2.07c-0.34-.689-0.69-1.38-1.03-2.07h-2.07c-0.35-.69-0.69-1.38-1.04-2.07l-4.14-1.035c-0.34-.69-0.69-1.38-1.03-2.07h-2.07c-0.35-.69-0.69-1.38-1.04-2.07h-2.07c-0.34-.69-0.69-1.38-1.03-2.07h-2.07c-0.35-.69-0.69-1.38-1.04-2.07h-2.07c-0.34-.69-0.69-1.38-1.03-2.07h-2.07c-0.35-.69-0.69-1.38-1.04-2.07h-2.07c-0.34-.69-0.69-1.38-1.03-2.07h-2.07V348.63c-1.04-.345-2.07-0.69-3.11-1.035-0.34-.69-0.69-1.38-1.03-2.071h-2.07c-0.35-.69-0.69-1.38-1.04-2.07h-2.07c-0.34-.69-0.69-1.38-1.03-2.07h-2.07c-0.35-.69-0.69-1.38-1.04-2.07h-2.07c-0.34-.69-0.69-1.38-1.03-2.07l-4.14-1.035c-0.35-.69-0.69-1.38-1.04-2.07h-2.07V333.1c-1.03-.345-2.07-0.69-3.1-1.035-0.35-.69-0.69-1.38-1.04-2.07h-2.07c-0.34-.69-0.69-1.38-1.03-2.07h-2.07c-0.35-.69-0.69-1.38-1.04-2.07h-2.07c-0.34-.69-0.69-1.38-1.03-2.07h-2.07c-0.35-.69-0.69-1.381-1.04-2.07h-2.07c-0.34-.69-0.69-1.381-1.03-2.07A20.615,20.615,0,0,0,1101.24,316.543Zm720.37,256.69a70.673,70.673,0,0,1,25.87,4.14h4.14v1.035h4.14v1.035h2.07v1.036c1.73,0.344,3.45.689,5.18,1.035,0.34,0.689.69,1.38,1.03,2.07h2.07c0.35,0.69.69,1.38,1.04,2.07h2.07l2.07,3.105h2.07l2.07,3.105h2.07c0.34,0.69.69,1.38,1.03,2.07l4.14,3.105v2.07c1.04,0.69,2.07,1.38,3.11,2.07v2.07c1.03,0.69,2.07,1.38,3.1,2.07v2.071l2.07,1.035v2.07l2.07,1.035v2.07h1.04v2.07h1.03c0.35,2.415.69,4.83,1.04,7.245,1.73,5.166,3.61,12.177,5.17,17.6V1500.63c-1.58,5.42-3.43,12.43-5.17,17.59-0.35,2.42-.69,4.83-1.04,7.25h-1.03v2.07h-1.04v2.07c-0.69.34-1.38,0.69-2.07,1.03v2.07c-0.69.35-1.38,0.69-2.07,1.04v2.07c-1.03.69-2.07,1.38-3.1,2.07v2.07c-1.04.69-2.07,1.38-3.11,2.07v2.07c-0.69.35-1.38,0.69-2.07,1.04-1.03,1.38-2.07,2.76-3.1,4.14h-2.07c-0.69,1.03-1.38,2.07-2.07,3.1h-2.07c-0.69,1.04-1.38,2.07-2.07,3.11h-2.07c-0.35.69-.69,1.38-1.04,2.07h-2.07c-0.34.69-.69,1.38-1.03,2.07h-2.07v1.03q-13.455,3.63-26.91,7.25c-6.07,1.74-13.92-.87-17.6-2.07h-4.14v-1.04h-4.14v-1.03h-4.14v-1.04h-4.14v-1.03h-2.07v-1.04h-3.1v-1.03h-2.07c-0.35-.69-0.69-1.38-1.04-2.07h-2.07c-0.34-.69-0.69-1.38-1.03-2.07h-2.07c-0.69-1.04-1.38-2.07-2.07-3.11h-2.07c-0.69-1.03-1.39-2.07-2.07-3.1h-2.07c-0.35-.69-0.69-1.38-1.04-2.07-1.38-1.04-2.76-2.07-4.14-3.11v-2.07c-1.03-.69-2.07-1.38-3.1-2.07v-2.07c-1.04-.69-2.08-1.38-3.11-2.07v-2.07c-0.69-.35-1.38-0.69-2.07-1.04v-2.07c-0.69-.34-1.38-0.69-2.07-1.03v-2.07h-1.04v-2.07h-1.03c-0.34-2.42-.69-4.83-1.03-7.25-1.74-5.16-3.62-12.17-5.18-17.59V640.511c1.57-5.419,3.43-12.43,5.18-17.6,0.34-2.415.69-4.83,1.03-7.245h1.03V613.6h1.04v-2.07l2.07-1.035v-2.07l2.07-1.035v-2.071c1.03-.69,2.07-1.38,3.11-2.07v-2.07c1.03-.69,2.07-1.38,3.1-2.07v-2.07l2.07-1.035c1.04-1.38,2.07-2.76,3.11-4.14h2.07c0.68-1.035,1.38-2.07,2.07-3.105h2.07l2.07-3.105h2.07c0.34-.69.69-1.38,1.03-2.07h2.07c0.35-.69.69-1.381,1.04-2.07h2.07v-1.035Q1808.14,576.856,1821.61,573.233ZM619.967,812.327l18.63,3.105v1.035h2.07V817.5h2.07l2.07,3.1h2.07v1.035l4.14,3.105v2.07l3.1,2.07v2.07h1.035v2.07h1.035v3.105h1.035v3.105h1.035v3.1H659.3v3.106h1.035v3.105h1.035v3.105H662.4v3.105h1.035v3.105h1.035l3.105,13.456h1.035l1.035,6.21h1.035l1.035,6.21h1.035v4.14h1.035v4.14h1.035v4.141h1.035v4.14h1.035c0.825,2.937-4.1,20.091-5.175,21.736l-3.105,2.07v2.07h-1.035l-3.105,4.14H662.4l-2.07,3.105h-2.07v1.035l-6.21,2.07v1.035h-4.14V938.6h-4.14v1.035h-4.14v1.035h-4.14v1.035h-5.175v1.035h-4.14v1.035h-2.07v1.035l-12.42,2.07v1.036h-2.07v1.035h-4.14v1.035h-3.105v1.035h-3.1v1.035h-3.105v1.035l-7.245,1.035v1.035h-2.07V956.2l-9.315,2.07V959.3h-2.071v1.035l-6.209,1.035v1.035h-2.07v1.035l-9.316,2.07q-0.516,1.035-1.034,2.07l-6.21,1.035v1.035l-4.14,1.035v1.035h-3.105v1.035h-3.106l-1.035,2.071-6.21,1.035V976.9h-2.07l-1.035,2.07h-3.105V980h-2.07v1.035l-4.14,1.035v1.035H517.5v1.035h-2.07v1.035h-2.07v1.035l-4.14,1.035v1.035l-4.14,1.035v1.035l-4.14,1.035v1.035h-2.07v1.035H496.8v1.035h-2.07v1.035h-2.07v1.035h-2.07V997.6h-2.07v1.036h-2.07v1.035h-2.07l-1.035,2.07h-2.07v1.03h-2.07v1.04h-2.07v1.03h-2.07v1.04c-1.38.34-2.76,0.69-4.14,1.03l-1.035,2.07c-1.38.35-2.76,0.69-4.14,1.04l-1.035,2.07-6.21,2.07-1.035,2.07H455.4v1.04h-2.07v1.03c-1.035.35-2.07,0.69-3.105,1.04l-1.035,2.07c-1.38.34-2.76,0.69-4.14,1.03l-1.035,2.07h-2.07v1.04h-2.07c-0.69,1.03-1.38,2.07-2.07,3.1-1.38.35-2.76,0.69-4.14,1.04l-1.035,2.07h-2.07v1.03c-1.035.35-2.07,0.69-3.1,1.04l-1.035,2.07h-2.07v1.03c-1.035.35-2.07,0.69-3.105,1.04l-1.035,2.07h-2.07c-0.69,1.03-1.38,2.07-2.07,3.1H414l-1.035,2.07H410.9l-1.035,2.07c-1.035.35-2.07,0.69-3.105,1.04-0.69,1.03-1.38,2.07-2.07,3.1h-2.07c-0.69,1.04-1.38,2.07-2.07,3.11h-2.07l-1.035,2.07h-2.07c-0.69,1.03-1.38,2.07-2.07,3.1h-2.07l-3.105,4.14h-2.07l-3.1,4.14h-2.07l-3.1,4.14h-2.07l-5.175,6.21h-2.07l-3.105,4.14h-2.07q-3.1,3.63-6.21,7.25h-2.07l-1.035,2.07h-1.035q-4.14,4.65-8.28,9.31h-2.07l-9.315,10.35c-7.218,7.22-14.6,13.3-20.7,21.74q-5.175,4.65-10.35,9.32v2.07c-0.69.34-1.38,0.69-2.07,1.03l-3.105,4.14c-1.38,1.04-2.76,2.07-4.14,3.11v2.07L289.8,1157v2.07l-7.245,6.21v2.07c-1.38,1.03-2.76,2.07-4.14,3.1v2.07c-1.38,1.04-2.761,2.07-4.14,3.11v2.07l-3.105,2.07v2.07c-1.38,1.03-2.76,2.07-4.14,3.1v2.07c-0.69.35-1.38,0.69-2.07,1.04v1.03c-0.69.35-1.38,0.69-2.07,1.04l-1.035,4.14-3.105,2.07v2.07l-3.1,2.07-1.035,4.14c-0.69.34-1.38,0.69-2.07,1.03-0.345,1.04-.69,2.07-1.035,3.11l-3.1,2.07-1.035,4.14-3.105,2.07-1.035,4.14-3.1,2.07q-0.518,2.07-1.036,4.14c-0.689.34-1.38,0.69-2.069,1.03v2.07c-0.69.35-1.38,0.69-2.07,1.04v2.07c-0.69.34-1.38,0.69-2.071,1.03q-0.516,2.07-1.034,4.14c-0.69.35-1.38,0.69-2.071,1.04q-1.034,3.1-2.069,6.21l-3.1,2.07q-0.517,2.07-1.036,4.14h-1.034v2.07h-1.035v2.07c-0.69.34-1.381,0.69-2.07,1.03v2.07h-1.036v2.07H217.35v2.07h-1.034v2.07c-0.69.35-1.38,0.69-2.071,1.04v2.07h-1.034v2.07h-1.036v2.07H211.14v2.07h-1.034q-0.519,2.07-1.036,4.14c-0.689.35-1.38,0.69-2.069,1.04v2.07h-1.036v2.07H204.93v2.07H203.9v2.07H202.86v2.07h-1.035v2.07h-1.034v2.07h-1.036v2.07H198.72v2.07h-1.034v2.07H196.65v3.1c-0.689.35-1.38,0.69-2.07,1.04-0.345,1.72-.69,3.45-1.035,5.17H192.51v2.07h-1.035l-1.035,4.14h-1.035v3.11H188.37v2.07h-1.035q-0.516,2.07-1.035,4.14h-1.035v3.1H184.23q-0.516,2.07-1.035,4.14H182.16l-1.035,6.21H180.09l-1.035,4.14H178.02v3.11h-1.035l-1.035,4.14h-1.035q-0.516,3.1-1.035,6.21h-1.035v2.07H171.81c-0.69,3.1-1.38,6.21-2.07,9.31h-1.035v2.07H167.67c-0.345,2.42-.69,4.83-1.035,7.25-0.69.34-1.38,0.69-2.07,1.03v4.14H163.53v3.11H162.5v4.14H161.46v2.07h-1.035l-1.035,8.28h-1.035v3.1H157.32v2.07h-1.035c-0.345,2.76-.69,5.53-1.035,8.29h-1.035v3.1H153.18v4.14h-1.035v4.14H151.11v4.14h-1.035v4.14H149.04v4.14h-1.035q-0.517,5.7-1.035,11.39h-1.035v4.14H144.9v4.14h-1.035v6.21H142.83l-1.035,10.35H140.76v6.21h-1.035v9.31H138.69v4.14h-1.035v7.25H136.62v11.38h-1.035v11.39c-3.143,10.55-3.078,25.72-3.105,39.33-0.027,13.67-3.737,33.34,0,46.58v17.59q0.518,12.945,1.035,25.88h1.035v4.14h1.035l1.035,22.77h1.035v7.25h1.035v4.14h1.035v8.28h1.035v7.24h1.035l1.035,10.35h1.035v6.21H144.9v4.14h1.035v4.14h1.035v6.21h1.035v4.14h1.035v4.14h1.035v4.14h1.035v5.18h1.035v4.14h1.035v4.14h1.035v3.1h1.035l1.035,8.28h1.035v2.07h1.035q1.035,5.7,2.07,11.39h1.035v2.07H162.5q0.517,3.615,1.035,7.25h1.035v3.1H165.6v2.07h1.035v3.11h1.035v4.14h1.035v2.07h1.035c0.69,3.1,1.38,6.21,2.07,9.31h1.035l1.035,4.14h1.035v4.14h1.035l1.035,4.14h1.035v3.11h1.035l1.035,4.14h1.035l1.035,6.21H183.2q0.517,2.07,1.035,4.14h1.035v3.1H186.3v2.07h1.035l1.035,4.14h1.035v3.11h1.035V1866h1.035v2.07h1.035v2.07h1.035l2.07,6.21h1.035v3.1h1.036q1.033,3.1,2.069,6.21h1.036v2.07h1.034v2.07h1.035v2.07H203.9v2.07h1.034v2.07h1.035v2.07c0.69,0.35,1.38.69,2.07,1.04v2.07h1.035v2.07h1.036v2.07h1.034v2.07h1.035v2.07h1.036q0.516,2.07,1.034,4.14c0.691,0.34,1.381.69,2.071,1.03v2.07h1.034v2.07h1.035v2.07h1.036v2.07c0.689,0.35,1.38.69,2.07,1.04v2.07h1.035v2.07h1.034v2.07H224.6c0.345,1.04.69,2.07,1.035,3.11,0.69,0.34,1.38.69,2.07,1.03q1.033,3.105,2.069,6.21c0.691,0.35,1.381.69,2.071,1.04v2.07h1.034v2.07c0.691,0.34,1.381.69,2.071,1.03v2.07c0.69,0.35,1.38.69,2.07,1.04v2.07c0.689,0.34,1.38.69,2.069,1.03q0.519,2.07,1.036,4.14l3.1,2.07,1.035,4.14,3.105,2.07,1.035,4.14c0.69,0.35,1.38.69,2.07,1.04,0.345,1.03.69,2.07,1.035,3.1l3.1,2.07,1.035,4.14,3.1,2.07v2.07l3.105,2.07v2.07l3.105,2.07v2.07c0.69,0.35,1.38.69,2.07,1.04v2.07c1.38,1.03,2.76,2.07,4.14,3.1v2.07l3.105,2.07v2.07c1.379,1.04,2.76,2.07,4.14,3.11v2.07l5.175,4.14v2.07c2.069,1.72,4.14,3.45,6.21,5.17v2.07l3.105,2.07v2.07l9.315,8.28v2.07q6.209,5.7,12.42,11.39v2.07q4.138,3.615,8.28,7.25,8.279,8.79,16.56,17.59h2.07l9.315,10.35c3.674,3.66,8.13,6.22,12.42,9.32l5.175,6.21h2.07l5.175,6.21h2.07l3.1,4.14h2.07l3.1,4.14h2.07l3.105,4.14h2.07c0.69,1.03,1.38,2.07,2.07,3.1h2.07l1.035,2.07h2.07c0.69,1.04,1.38,2.07,2.07,3.11h2.07c0.69,1.03,1.38,2.07,2.07,3.1,1.035,0.35,2.07.69,3.105,1.04l1.035,2.07h2.07v1.03c1.035,0.35,2.07.69,3.105,1.04l1.035,2.07h2.07c0.69,1.03,1.38,2.07,2.07,3.1h2.07l1.035,2.07c1.035,0.35,2.07.69,3.105,1.04v1.03c1.38,0.35,2.76.69,4.14,1.04,0.69,1.03,1.38,2.07,2.07,3.1,1.38,0.35,2.76.69,4.14,1.04,0.69,1.03,1.38,2.07,2.07,3.1h2.07v1.04h2.07l1.035,2.07c1.38,0.34,2.76.69,4.14,1.03v1.04c1.035,0.34,2.07.69,3.105,1.03l1.035,2.07c1.38,0.35,2.76.69,4.14,1.04l1.035,2.07,6.21,2.07,1.035,2.07h2.07v1.03h2.07v1.04h2.07v1.03h2.07v1.04h2.07l1.035,2.07h2.07v1.03h2.07v1.04h2.07v1.03h2.07l1.035,2.07h2.07v1.04h2.07v1.03h2.07v1.04h2.07v1.03h2.07v1.04h2.07v1.03h2.07v1.04h2.07v1.04h2.07V2191h2.07v1.04h2.07v1.03h2.07v1.04h3.1l1.035,2.07h2.07v1.03h3.105v1.04h2.071v1.03h2.069v1.04h2.07v1.03h3.105v1.04c1.38,0.34,2.761.69,4.14,1.03v1.04h2.07v1.03h3.105l1.035,2.07h3.106v1.04h3.105v1.03c1.379,0.35,2.76.69,4.14,1.04v1.03c2.069,0.35,4.14.69,6.21,1.04v1.03c1.379,0.35,2.76.69,4.139,1.04v1.03c2.07,0.35,4.141.69,6.211,1.04v1.03h2.07v1.04l9.314,2.07v1.03h2.071v1.04c2.414,0.34,4.83.69,7.244,1.03q0.519,1.035,1.036,2.07h4.14v1.04h3.105v1.03h4.14v1.04h2.07v1.03c2.414,0.35,4.83.69,7.245,1.04v1.03h3.105v1.04h3.105v1.03l11.385,2.07v1.04c2.759,0.34,5.52.69,8.28,1.03v1.04h4.14v1.03h4.14v1.04h4.14v1.03h5.175v1.04c3.1,0.34,6.21.69,9.315,1.03v1.04h4.14v1.03h7.245v1.04c3.105,0.34,6.21.69,9.315,1.03V2250q8.279,0.51,16.56,1.03v1.04h4.14v1.03h7.245v1.04h11.385v1.03h11.385v1.04h4.14v1.03q12.418,0.525,24.84,1.04h17.6c8.114,2.24,32.263,2.28,40.365,0q21.734-.525,43.47-1.04v-1.03h4.141v-1.04h11.384v-1.03H890.1v-1.04h8.28v-1.03h4.14v-1.04h8.28V2250h7.245v-1.04h4.14v-1.03h5.175v-1.04h7.245v-1.03h4.14v-1.04h4.14v-1.03h6.21v-1.04c2.759-.34,5.52-0.69,8.28-1.03v-1.04h4.14v-1.03h4.14v-1.04h4.14v-1.03h4.14v-1.04h3.105v-1.03c2.759-.35,5.52-0.69,8.28-1.04v-1.03h3.105v-1.04h3.105v-1.03c2.415-.35,4.83-0.69,7.245-1.04v-1.03h2.072v-1.04h4.14v-1.03h3.1v-1.04h4.14c0.35-.69.69-1.38,1.04-2.07h4.14v-1.03h3.1v-1.04h2.07v-1.03l9.32-2.07v-1.04h2.07v-1.03c2.07-.35,4.14-0.69,6.21-1.04v-1.03c1.38-.35,2.76-0.69,4.14-1.04v-1.03c2.07-.35,4.14-0.69,6.21-1.04v-1.03c1.38-.35,2.76-0.69,4.14-1.04v-1.03c2.07-.35,4.14-0.69,6.21-1.04,0.34-.69.69-1.38,1.03-2.07,2.07-.34,4.14-0.69,6.21-1.03v-1.04l6.21-2.07v-1.03h2.07v-1.04h2.07v-1.03h2.07v-1.04h3.11v-1.03h2.07v-1.04c1.38-.34,2.76-0.69,4.14-1.03v-1.04c1.38-.34,2.76-0.69,4.14-1.03V2191h2.07v-1.03h2.07v-1.04h2.07v-1.04h2.07v-1.03h2.07v-1.04h2.07v-1.03h2.07v-1.04h2.07v-1.03h2.07v-1.04h2.07c0.34-.69.69-1.38,1.03-2.07h3.11v-1.03h2.07v-1.04h2.07c0.34-.69.69-1.38,1.03-2.07,1.38-.34,2.76-0.69,4.14-1.03,0.35-.69.69-1.38,1.04-2.07l6.21-2.07c0.34-.69.69-1.38,1.03-2.07l6.21-2.07c0.35-.69.69-1.38,1.04-2.07h2.07v-1.04h2.07v-1.03c1.03-.35,2.07-0.69,3.1-1.04,0.35-.69.69-1.38,1.04-2.07,1.38-.34,2.76-0.69,4.14-1.03,0.34-.69.69-1.38,1.03-2.07h2.07v-1.04h2.07c0.69-1.03,1.38-2.07,2.07-3.1,1.38-.35,2.76-0.69,4.14-1.04,0.35-.69.69-1.38,1.04-2.07h2.07v-1.03c1.03-.35,2.07-0.69,3.1-1.04,0.35-.69.69-1.38,1.04-2.07h2.07v-1.03c1.03-.35,2.07-0.69,3.1-1.04,0.35-.69.69-1.38,1.04-2.07h2.07c0.69-1.03,1.38-2.07,2.07-3.1,1.38-.35,2.76-0.69,4.14-1.04,1.03-1.38,2.07-2.76,3.1-4.14h2.07c0.69-1.03,1.38-2.07,2.07-3.1h2.07c0.69-1.04,1.38-2.07,2.07-3.11h2.07c0.35-.69.69-1.38,1.04-2.07h2.07c0.34-.69.69-1.38,1.03-2.07,1.04-.34,2.07-0.69,3.11-1.03,0.69-1.04,1.38-2.07,2.07-3.11h2.07c1.03-1.38,2.07-2.76,3.1-4.14h2.07c1.04-1.38,2.07-2.76,3.11-4.14h2.07c1.72-2.07,3.45-4.14,5.17-6.21h2.07c1.38-1.72,2.76-3.45,4.14-5.17h2.07q3.105-3.63,6.21-7.25h2.07q6.21-6.72,12.42-13.45h2.07q4.14-4.665,8.28-9.32,9.84-9.315,19.67-18.63v-2.07q5.175-4.665,10.35-9.32v-1.03c0.69-.35,1.38-0.69,2.07-1.04v-2.07q3.615-3.105,7.24-6.21v-2.07c1.04-.69,2.07-1.38,3.11-2.07v-2.07q3.615-3.105,7.24-6.21v-2.07c1.38-1.03,2.76-2.07,4.14-3.1v-2.07c1.38-1.04,2.76-2.07,4.14-3.11v-2.07c1.04-.69,2.07-1.38,3.11-2.07v-2.07c1.38-1.03,2.76-2.07,4.14-3.1v-2.07c0.69-.35,1.38-0.69,2.07-1.04v-1.03c0.69-.35,1.38-0.69,2.07-1.04,0.34-1.38.69-2.76,1.03-4.14,1.04-.69,2.07-1.38,3.11-2.07v-2.07c1.03-.69,2.07-1.38,3.1-2.07,0.35-1.03.69-2.07,1.04-3.1,0.69-.35,1.38-0.69,2.07-1.04,0.34-1.38.69-2.76,1.03-4.14,1.04-.69,2.07-1.38,3.11-2.07,0.34-1.38.69-2.76,1.03-4.14,1.04-.69,2.07-1.38,3.11-2.07v-2.07c0.69-.34,1.38-0.69,2.07-1.03v-2.07c0.69-.35,1.38-0.69,2.07-1.04,0.34-1.03.69-2.07,1.03-3.1h1.04c0.34-1.38.69-2.76,1.03-4.14,1.04-.69,2.07-1.38,3.11-2.07l2.07-6.21h1.03c0.35-1.04.69-2.07,1.04-3.11,0.69-.34,1.38-0.69,2.07-1.03v-2.07h1.03v-2.07c0.69-.35,1.38-0.69,2.07-1.04,0.35-1.38.69-2.76,1.04-4.14,0.69-.34,1.38-0.69,2.07-1.04v-2.07h1.03v-2.07h1.04v-2.07h1.03v-2.07h1.04v-2.07c0.69-.34,1.38-0.69,2.07-1.03,0.34-1.04.69-2.07,1.03-3.11h1.04c0.34-1.72.69-3.45,1.03-5.17,0.69-.35,1.38-0.69,2.07-1.04v-2.07h1.04v-2.07h1.03v-2.07h1.04v-2.07h1.03v-2.07h1.04c0.34-1.38.69-2.76,1.03-4.14,0.69-.34,1.38-0.69,2.07-1.03,0.35-1.73.69-3.45,1.04-5.18h1.03v-2.07h1.04v-2.07h1.03v-2.07h1.04v-2.07h1.03v-2.07h1.04v-2.07h1.03v-3.1c0.69-.35,1.38-0.69,2.07-1.04v-2.07h1.04v-3.1h1.03v-2.07h1.04c0.34-1.38.69-2.76,1.03-4.14h1.04v-3.11h1.03c0.35-1.38.69-2.76,1.04-4.14h1.03v-3.1h1.04v-3.11c0.69-.34,1.38-0.69,2.07-1.03,0.69-3.11,1.38-6.21,2.07-9.32h1.03c0.35-1.38.69-2.76,1.04-4.14h1.03c0.35-2.07.69-4.14,1.04-6.21h1.03v-2.07h1.04c0.34-2.07.69-4.14,1.03-6.21h1.04v-2.07h1.03c0.35-2.07.69-4.14,1.04-6.21h1.03v-3.1h1.04v-2.07h1.03c0.35-2.42.69-4.84,1.04-7.25h1.03v-3.11h1.04v-3.1h1.03v-3.11h1.04v-4.14h1.03v-2.07h1.04q1.545-7.755,3.1-15.52h1.04c0.34-2.76.69-5.52,1.03-8.28h1.04v-4.14h1.03v-4.14h1.04v-4.14h1.03v-4.14h1.04c0.34-3.11.69-6.21,1.03-9.32h1.04q0.51-6.21,1.03-12.42h1.04v-4.14h1.03v-5.17h1.04q1.035-9.84,2.07-19.67h1.03v-8.28h1.04v-11.38h1.03v-4.15h1.04v-11.38h1.03v-15.53h1.04v-26.91h1.03v-18.63a2.733,2.733,0,0,0,1.04-3.1h-1.04v-18.63h-1.03q-0.525-21.225-1.04-42.44h-1.03v-11.39h-1.04v-4.14h-1.03v-11.38h-1.04v-8.28h-1.03v-4.14h-1.04v-8.28h-1.03v-7.25h-1.04v-5.17h-1.03v-4.14h-1.04q-0.51-6.21-1.03-12.42h-1.04c-0.34-3.11-.69-6.21-1.03-9.32h-1.04c-0.34-2.76-.69-5.52-1.03-8.28h-1.04v-4.14h-1.03v-4.14H1449v-4.14h-1.03v-4.14h-1.04v-3.1h-1.03q-1.035-6.21-2.07-12.43h-1.04v-2.07h-1.03v-4.14h-1.04v-3.1h-1.03v-3.11h-1.04v-3.1h-1.03v-3.11h-1.04v-4.14h-1.03v-2.07h-1.04c-0.69-3.1-1.38-6.21-2.07-9.31h-1.03v-2.07h-1.04c-0.34-2.07-.69-4.14-1.03-6.21h-1.04v-2.07h-1.03c-0.35-2.07-.69-4.14-1.04-6.21h-1.03c-0.35-1.38-.69-2.76-1.04-4.14h-1.03c-0.35-2.07-.69-4.14-1.04-6.21h-1.03v-3.11c-0.69-.34-1.38-0.69-2.07-1.03-0.35-2.07-.69-4.14-1.04-6.21h-1.03c-0.35-1.38-.69-2.76-1.04-4.14h-1.03v-3.11h-1.04c-0.34-1.38-.69-2.76-1.03-4.14h-1.04v-2.07h-1.03c-0.35-1.72-.69-3.45-1.04-5.17-0.69-.35-1.38-0.69-2.07-1.04v-3.1h-1.03v-2.07h-1.04l-2.07-6.21h-1.03v-3.11c-0.69-.34-1.38-0.69-2.07-1.03-0.69-2.42-1.38-4.83-2.07-7.25-0.69-.34-1.38-0.69-2.07-1.03v-2.07h-1.04v-2.07h-1.03v-2.07h-1.04v-2.07h-1.03v-2.07h-1.04v-2.07c-0.69-.35-1.38-0.7-2.07-1.04-0.34-1.72-.69-3.45-1.03-5.18h-1.04c-0.34-1.03-.69-2.07-1.03-3.1-0.69-.35-1.38-0.69-2.07-1.04v-2.07h-1.04v-2.07h-1.03v-2.07h-1.04v-2.07h-1.03v-2.07c-0.69-.34-1.38-0.69-2.07-1.03l-2.07-6.21c-0.69-.35-1.38-0.69-2.07-1.04v-2.07c-0.69-.34-1.38-0.69-2.07-1.03v-2.07c-0.69-.35-1.38-0.69-2.07-1.04l-2.07-6.21c-0.69-.34-1.38-0.69-2.07-1.03v-2.07h-1.04c-0.34-1.04-.69-2.07-1.03-3.11-0.69-.34-1.38-0.69-2.07-1.03v-2.07h-1.04c-0.34-1.04-.69-2.07-1.03-3.11-0.69-.34-1.38-0.69-2.07-1.03v-2.07c-1.04-.69-2.07-1.38-3.11-2.07-0.34-1.38-.69-2.76-1.03-4.14-1.04-.69-2.07-1.38-3.11-2.07-0.34-1.38-.69-2.76-1.03-4.14-0.69-.35-1.38-0.69-2.07-1.04v-2.07c-1.04-.69-2.07-1.38-3.11-2.07v-2.07c-0.69-.34-1.38-0.69-2.07-1.03v-2.07c-0.69-.35-1.38-0.69-2.07-1.04-0.34-1.03-.69-2.07-1.03-3.1-1.38-1.04-2.76-2.07-4.14-3.11v-2.07c-1.38-1.03-2.76-2.07-4.14-3.1v-2.07c-1.04-.69-2.07-1.38-3.11-2.07v-2.07c-1.03-.69-2.07-1.38-3.1-2.07v-2.07c-1.73-1.38-3.45-2.76-5.18-4.14v-2.07c-1.03-.69-2.07-1.38-3.1-2.07v-2.07q-3.63-3.105-7.25-6.21v-2.07q-4.14-3.63-8.28-7.25v-2.07q-5.685-5.175-11.38-10.35v-2.07q-5.7-5.175-11.39-10.35-8.79-9.315-17.59-18.63c-1.04-.35-2.07-0.69-3.11-1.04q-4.65-5.175-9.31-10.35c-1.04-.34-2.07-0.69-3.11-1.03q-3.615-4.14-7.24-8.28h-2.07c-1.04-1.38-2.07-2.76-3.11-4.14h-2.07c-1.72-2.07-3.45-4.14-5.17-6.21h-2.07c-1.04-1.38-2.07-2.76-3.11-4.14h-2.07c-1.03-1.38-2.07-2.76-3.1-4.14h-2.07c-0.69-1.04-1.38-2.07-2.07-3.11h-2.07c-0.69-1.03-1.38-2.07-2.07-3.1h-2.07c-1.04-1.38-2.07-2.76-3.11-4.14-1.03-.35-2.07-0.69-3.1-1.04-0.35-.69-0.69-1.38-1.04-2.07h-2.07c-0.34-.69-0.69-1.38-1.03-2.07h-2.07c-0.69-1.03-1.38-2.07-2.07-3.1-1.38-.35-2.76-0.69-4.14-1.04-0.35-.69-0.69-1.38-1.04-2.07-1.03-.34-2.07-0.69-3.1-1.03-0.69-1.04-1.38-2.07-2.07-3.11-1.38-.34-2.76-0.69-4.14-1.03-0.69-1.04-1.38-2.07-2.07-3.11h-2.07v-1.03h-2.07c-0.35-.69-0.69-1.38-1.04-2.07-1.38-.35-2.76-0.69-4.14-1.04-0.69-1.03-1.38-2.07-2.07-3.1-1.38-.35-2.76-0.69-4.14-1.04-0.34-.69-0.69-1.38-1.03-2.07-11.17-7.12-36.87-16.84-37.26-33.121h-1.04v-4.14h-1.03v-4.14h-1.04c-1.31-4.541,1.21-8.856,2.07-11.386,0.35-2.759.69-5.52,1.04-8.28h1.03l2.07-6.21h1.04v-2.07h1.03v-2.07h1.04v-2.07h1.03v-2.071h1.04v-2.07h1.03v-2.07h1.04v-2.07h1.03V938.6h1.04v-2.07l2.07-1.035,2.07-6.21h1.03c0.35-1.38.69-2.76,1.04-4.14h1.03v-2.07h1.04v-2.07h1.03v-2.071h1.04v-2.07h1.03l2.07-6.21q5.175-6.21,10.35-12.42h2.07q1.035-1.552,2.07-3.105h2.07V894.1h2.07V893.06h4.14v-1.035h4.14V890.99c6.76-2.226,12.35.251,17.6,2.07h4.14V894.1l4.14,1.036v1.035h2.07c0.34,0.689.69,1.38,1.03,2.07l6.21,2.07c0.35,0.69.69,1.38,1.04,2.07h2.07v1.035h2.07c0.34,0.69.69,1.38,1.03,2.07h2.07c0.35,0.69.69,1.38,1.04,2.07h2.07c0.34,0.69.69,1.38,1.03,2.07l6.21,2.07,2.07,3.105h2.07c0.35,0.69.69,1.38,1.04,2.07l4.14,1.035,2.07,3.106,4.14,1.035q1.035,1.551,2.07,3.105l4.14,1.035c0.34,0.69.69,1.38,1.03,2.07,1.04,0.345,2.07.69,3.11,1.035l2.07,3.105,4.14,1.035,2.07,3.105h2.07l2.07,3.1h2.07l2.07,3.105h2.07c0.34,0.69.69,1.381,1.03,2.07h2.07l2.07,3.106h2.07q1.035,1.551,2.07,3.105h2.07l2.07,3.105h2.07c0.35,0.69.69,1.38,1.04,2.07h2.07c0.34,0.69.69,1.38,1.03,2.07,1.04,0.345,2.07.69,3.11,1.035,1.03,1.38,2.07,2.76,3.1,4.14h2.07l2.07,3.105h2.07l2.07,3.105h2.07c1.73,2.07,3.45,4.141,5.18,6.211h2.07l4.14,5.175h2.07l6.21,7.245h2.07l2.07,3.105h2.07q6.72,7.245,13.45,14.491h2.07q6.21,6.72,12.42,13.46c8.54,8.54,17.65,15.92,24.84,25.87q7.245,6.735,14.49,13.46v2.07c1.38,1.03,2.76,2.07,4.14,3.1v2.07c1.73,1.38,3.45,2.76,5.18,4.14v2.07q3.615,3.105,7.24,6.21v2.07c1.73,1.38,3.45,2.76,5.18,4.14v2.07c1.03,0.69,2.07,1.38,3.1,2.07v2.07c1.04,0.69,2.07,1.38,3.11,2.07v2.07c1.38,1.04,2.76,2.07,4.14,3.11v2.07c1.03,0.69,2.07,1.38,3.1,2.07v2.07c0.69,0.34,1.38.69,2.07,1.03v2.07c1.04,0.69,2.07,1.38,3.11,2.07v2.07c1.38,1.04,2.76,2.07,4.14,3.11,0.34,1.03.69,2.07,1.03,3.1,0.69,0.35,1.38.69,2.07,1.04,0.35,1.38.69,2.76,1.04,4.14,1.03,0.69,2.07,1.38,3.1,2.07v2.07c1.04,0.69,2.07,1.38,3.11,2.07v2.07c1.03,0.69,2.07,1.38,3.1,2.07,0.35,1.38.69,2.76,1.04,4.14,0.69,0.34,1.38.69,2.07,1.03,0.34,1.04.69,2.08,1.03,3.11,1.04,0.69,2.07,1.38,3.11,2.07v2.07c0.69,0.35,1.38.69,2.07,1.04,0.34,1.38.69,2.76,1.03,4.14,1.04,0.69,2.07,1.38,3.11,2.07v2.07c0.69,0.34,1.38.69,2.07,1.03v2.07c1.03,0.69,2.07,1.38,3.1,2.07l2.07,6.21c1.04,0.69,2.07,1.38,3.11,2.07l2.07,6.21h1.03c0.35,1.04.69,2.07,1.04,3.11,0.69,0.34,1.38.69,2.07,1.03,0.34,1.38.69,2.76,1.03,4.14,0.69,0.35,1.38.69,2.07,1.04v2.07h1.04v2.07c1.03,0.69,2.07,1.38,3.1,2.07v2.07h1.04v2.07h1.03v2.07h1.04v2.07h1.03v2.07h1.04v2.07c0.69,0.34,1.38.69,2.07,1.03,0.34,1.38.69,2.76,1.03,4.14h1.04v2.07h1.03v2.07c0.69,0.35,1.38.69,2.07,1.04v2.07H1508v2.07h1.03v2.07h1.04v2.07h1.03v2.07c0.69,0.34,1.38.69,2.07,1.03v2.07h1.04v2.07h1.03v2.07h1.04v2.07h1.03v2.07h1.04v2.07h1.03l2.07,6.21h1.04v3.11h1.03v2.07h1.04v3.1c0.69,0.35,1.38.69,2.07,1.04v3.1h1.03v2.07h1.04c0.34,1.38.69,2.76,1.03,4.14h1.04v3.11h1.03v2.07h1.04v2.07h1.03v2.07h1.04c0.34,2.07.69,4.14,1.03,6.21,0.69,0.35,1.38.69,2.07,1.04v3.1h1.04v3.11h1.03c0.35,1.38.69,2.76,1.04,4.14h1.03c0.35,2.07.69,4.14,1.04,6.21h1.03v2.07h1.04c1.22,2.78.75,5.67,2.07,8.28h1.03v2.07h1.04v4.14h1.03v3.1h1.04v2.07h1.03c0.35,2.07.69,4.14,1.04,6.21h1.03v2.07h1.04v4.14h1.03v3.11h1.04v4.14h1.03v2.07h1.04v3.1h1.03c0.35,2.76.69,5.52,1.04,8.28h1.03v2.07h1.04c0.34,2.76.69,5.52,1.03,8.28h1.04v2.07h1.03l2.07,12.42c4.94,14.48,7.82,31.87,12.42,46.58v6.21h1.04v4.14h1.03v4.14h1.04v5.18h1.03v6.21h1.04v4.14h1.03v4.14h1.04v7.24h1.03v7.25h1.04v5.17h1.03v4.14h1.04v9.32h1.03v9.31h1.04v4.14h1.03q1.035,20.19,2.07,40.37h1.04v4.14h1.03v4.14h1.04v79.7h-1.04v4.14h-1.03v4.14h-1.04q-0.51,15-1.03,30.02h-1.04v10.35h-1.03v4.14h-1.04v9.31h-1.03v8.28h-1.04v4.14h-1.03v6.21h-1.04q-0.51,7.245-1.03,14.49h-1.04v4.14h-1.03v4.14h-1.04v6.21h-1.03v5.18h-1.04v4.14h-1.03v4.14h-1.04c-0.34,3.45-.69,6.9-1.03,10.35h-1.04v4.14h-1.03v4.14h-1.04c-0.34,3.1-.69,6.21-1.03,9.31-2.97,8.68-5.36,19.41-8.28,27.95-0.35,2.76-.69,5.52-1.04,8.28h-1.03v2.07h-1.04c-0.34,3.11-.69,6.21-1.03,9.32h-1.04v3.1h-1.03v2.07h-1.04c-0.34,2.76-.69,5.52-1.03,8.28h-1.04v2.07h-1.03l-2.07,10.35h-1.04v2.07h-1.03c-0.35,2.42-.69,4.83-1.04,7.25h-1.03V1866h-1.04c-0.69,3.1-1.38,6.21-2.07,9.31h-1.03v2.07h-1.04c-0.34,2.07-.69,4.14-1.03,6.21h-1.04v2.07h-1.03c-0.35,2.07-.69,4.14-1.04,6.21h-1.03c-0.35,1.38-.69,2.76-1.04,4.14h-1.03v3.11h-1.04v3.1c-0.69.35-1.38,0.69-2.07,1.04-0.34,2.07-.69,4.14-1.03,6.21h-1.04v2.07h-1.03v2.07h-1.04v2.07h-1.03v3.1h-1.04v2.07h-1.03v2.07h-1.04c-0.69,2.07-1.38,4.15-2.07,6.22h-1.03v3.1h-1.04v2.07h-1.03v3.11h-1.04l-2.07,6.21h-1.03v2.07h-1.04v2.07h-1.03v2.07h-1.04v2.07h-1.03v2.07h-1.04v2.07c-0.69.34-1.38,0.69-2.07,1.03l-2.07,6.21c-0.69.35-1.38,0.69-2.07,1.04v2.07h-1.03v2.07h-1.04v2.07h-1.03v2.07h-1.04v2.07h-1.03v2.07c-0.69.34-1.38,0.69-2.07,1.03v2.07h-1.04v2.07h-1.03v2.07h-1.04v2.07h-1.03c-0.35,1.38-.69,2.76-1.04,4.14-1.03.69-2.07,1.38-3.1,2.07v2.07h-1.04v2.07c-0.69.35-1.38,0.69-2.07,1.04-0.34,1.38-.69,2.76-1.03,4.14-0.69.34-1.38,0.69-2.07,1.03v2.07c-0.69.35-1.38,0.69-2.07,1.04v2.07c-0.69.34-1.38,0.69-2.07,1.03-0.35,1.38-.69,2.76-1.04,4.14-0.69.35-1.38,0.69-2.07,1.04l-2.07,6.21c-1.03.69-2.07,1.38-3.1,2.07v2.07c-1.04.69-2.07,1.38-3.11,2.07v2.07c-0.69.34-1.38,0.69-2.07,1.03v2.07c-0.69.35-1.38,0.69-2.07,1.04-0.34,1.38-.69,2.76-1.03,4.14-1.04.69-2.07,1.38-3.11,2.07v2.07c-1.03.69-2.07,1.38-3.1,2.07-0.35,1.38-.69,2.76-1.04,4.14-1.03.69-2.07,1.38-3.1,2.07v2.07c-1.04.69-2.07,1.38-3.11,2.07v2.07c-1.03.69-2.07,1.38-3.1,2.07-0.35,1.38-.69,2.76-1.04,4.14-0.69.35-1.38,0.69-2.07,1.04-0.34,1.03-.69,2.07-1.03,3.1-1.38,1.04-2.76,2.07-4.14,3.11v2.07c-1.04.69-2.07,1.38-3.11,2.07v2.07c-0.69.34-1.38,0.69-2.07,1.03v2.07c-1.03.69-2.07,1.38-3.1,2.07v2.07c-1.38,1.04-2.76,2.07-4.14,3.11v2.07c-1.04.69-2.07,1.38-3.11,2.07v2.07c-1.03.69-2.07,1.38-3.1,2.07v2.07c-1.04.69-2.07,1.38-3.11,2.07-0.69,1.03-1.38,2.07-2.07,3.1h-1.03v2.07c-2.07,1.73-4.14,3.45-6.21,5.18v2.07c-1.73,1.38-3.45,2.76-5.18,4.14-10.93,15.15-24.24,27.35-37.26,40.36q-9.315,9.84-18.63,19.67h-2.07v1.03c-1.03.69-2.07,1.38-3.1,2.07q-5.175,5.7-10.35,11.39h-2.07c-0.69,1.03-1.38,2.07-2.07,3.11h-2.07q-3.1,3.615-6.21,7.24h-2.07c-1.38,1.73-2.76,3.45-4.14,5.18h-2.07c-0.35.69-.69,1.38-1.04,2.07-1.03.34-2.07,0.69-3.1,1.03-1.04,1.38-2.07,2.76-3.11,4.14h-2.07c-1.03,1.38-2.07,2.76-3.1,4.14h-2.07c-0.69,1.04-1.38,2.07-2.07,3.11h-2.07c-0.69,1.03-1.38,2.07-2.07,3.1h-2.07c-1.04,1.38-2.07,2.76-3.11,4.14h-2.07c-0.69,1.04-1.38,2.07-2.07,3.11h-2.07c-0.69,1.03-1.38,2.07-2.07,3.1h-2.07c-0.69,1.04-1.38,2.07-2.07,3.11h-2.07c-0.34.69-.69,1.38-1.03,2.07h-2.07c-0.69,1.03-1.38,2.07-2.07,3.1h-2.07c-0.69,1.04-1.38,2.07-2.07,3.11h-2.07c-0.69,1.03-1.38,2.07-2.07,3.1-1.38.35-2.76,0.69-4.14,1.04-0.35.69-.69,1.38-1.04,2.07-1.03.34-2.07,0.69-3.1,1.03-0.69,1.04-1.38,2.07-2.07,3.11-1.38.34-2.76,0.69-4.14,1.03-0.69,1.04-1.38,2.07-2.07,3.11-1.38.34-2.76,0.69-4.14,1.03-0.69,1.04-1.38,2.07-2.07,3.11-1.38.34-2.76,0.69-4.14,1.03-0.35.69-.69,1.38-1.04,2.07h-2.07c-0.34.69-.69,1.38-1.03,2.07h-2.07c-0.35.69-.69,1.38-1.04,2.07h-2.07v1.04h-2.07c-0.34.69-.69,1.38-1.03,2.07-1.38.34-2.76,0.69-4.14,1.03v1.04c-1.04.34-2.07,0.69-3.11,1.03-0.34.69-.69,1.38-1.03,2.07-1.38.35-2.76,0.69-4.14,1.04-0.35.69-.69,1.38-1.04,2.07-1.38.34-2.76,0.69-4.14,1.03-0.34.69-.69,1.38-1.03,2.07l-6.21,2.07c-0.35.69-.69,1.38-1.04,2.07h-2.07v1.04h-2.07c-0.34.69-.69,1.38-1.03,2.07h-2.07v1.03h-2.07v1.04h-2.07v1.03h-2.07v1.04h-2.07c-0.35.69-.69,1.38-1.04,2.07h-2.07v1.03c-1.72.35-3.45,0.69-5.17,1.04-0.35.69-.69,1.38-1.04,2.07h-2.07v1.03h-2.07v1.04h-2.07v1.03h-2.07v1.04h-2.07v1.03h-2.07v1.04h-2.07v1.03h-2.07v1.04l-6.21,2.07v1.03h-3.1v1.04h-2.07v1.03h-2.07v1.04h-2.07v1.03q-3.105,1.035-6.21,2.08v1.03h-3.11v1.04c-1.38.34-2.76,0.69-4.14,1.03v1.04h-3.1v1.03h-2.07v1.04h-3.11v1.03c-1.38.35-2.76,0.69-4.14,1.04v1.03h-3.1v1.04c-1.38.34-2.76,0.69-4.14,1.03v1.04h-3.11v1.03h-3.1v1.04H1094v1.03c-2.07.35-4.14,0.69-6.21,1.04v1.03h-2.07v1.04l-9.32,2.07v1.03h-2.07v1.04h-3.1v1.03h-4.14v1.04h-3.11v1.03h-2.07v1.04c-2.41.34-4.83,0.69-7.24,1.03v1.04h-2.07v1.03l-12.42,2.07v1.04h-2.07v1.03c-2.76.35-5.52,0.69-8.28,1.04v1.03h-3.11v1.04h-3.1v1.03c-3.11.35-6.21,0.69-9.32,1.04-19.773,7.08-43.685,10.16-64.167,16.56h-6.21v1.03h-5.175v1.04h-4.14v1.03q-7.245.525-14.49,1.04v1.03h-5.175v1.04H910.8v1.03h-9.315v1.04h-9.315v1.03H881.822v1.04h-4.139v1.03H864.227v1.04H848.7v1.03h-4.14v1.04h-4.14v1.03h-79.7v-1.03h-4.14v-1.04h-4.14v-1.03H736.922v-1.04H723.467v-1.03h-4.14v-1.04h-10.35v-1.03h-9.315v-1.04h-9.315v-1.03h-4.14v-1.04h-5.175v-1.03h-8.28v-1.04h-6.21v-1.03H662.4v-1.04q-5.693-.51-11.385-1.03c-20.474-6.48-44.34-9.48-64.17-16.56-3.105-.35-6.211-0.69-9.315-1.04v-1.03h-3.105v-1.04h-3.105v-1.03c-2.76-.35-5.521-0.69-8.28-1.04v-1.03h-2.071v-1.04l-11.384-2.07v-1.03h-2.07v-1.04c-2.76-.34-5.521-0.69-8.281-1.03v-1.04h-2.07v-1.03l-9.315-2.07v-1.04h-2.069v-1.03h-4.141v-1.04h-3.105v-1.03h-2.07v-1.04h-3.105v-1.03c-2.069-.35-4.14-0.69-6.21-1.04l-1.035-2.07-9.315-2.07v-1.03c-1.379-.35-2.76-0.69-4.14-1.04v-1.03h-3.105v-1.04c-1.38-.34-2.76-0.69-4.14-1.03v-1.04c-2.07-.34-4.14-0.69-6.21-1.03l-1.035-2.07q-3.1-.525-6.21-1.04l-1.035-2.07h-2.07v-1.04h-3.105v-1.03h-2.07v-1.04c-1.38-.34-2.76-0.69-4.14-1.03v-1.04h-3.105v-1.03c-1.38-.35-2.76-0.69-4.14-1.04v-1.03c-1.38-.35-2.76-0.69-4.14-1.04l-1.035-2.07h-2.07v-1.03h-3.1v-1.04c-1.38-.34-2.76-0.69-4.14-1.03v-1.04c-1.38-.34-2.76-0.69-4.14-1.03l-1.035-2.07h-2.07v-1.04h-2.07v-1.03h-2.07v-1.04h-2.07v-1.03c-1.38-.35-2.76-0.69-4.14-1.04l-1.035-2.07h-2.07v-1.03h-2.07v-1.04h-2.07v-1.03H410.9v-1.04h-2.07l-1.035-2.07-6.21-2.07-1.035-2.07h-2.07l-1.035-2.07c-1.38-.34-2.76-0.69-4.14-1.03l-1.035-2.07c-1.38-.35-2.76-0.69-4.14-1.04l-1.035-2.07c-1.38-.34-2.76-0.69-4.14-1.03l-1.035-2.07h-2.07v-1.04h-2.07l-1.035-2.07h-2.07l-1.035-2.07h-2.07v-1.03c-1.035-.35-2.07-0.69-3.1-1.04l-1.035-2.07h-2.07l-1.035-2.07h-2.07v-1.03c-1.035-.35-2.07-0.69-3.1-1.04l-1.035-2.07h-2.07c-0.69-1.03-1.38-2.07-2.07-3.1-1.38-.35-2.76-0.69-4.14-1.04l-1.035-2.07c-1.035-.34-2.07-0.69-3.105-1.03-0.69-1.04-1.38-2.07-2.07-3.11-1.38-.34-2.76-0.69-4.14-1.03-0.69-1.04-1.38-2.07-2.07-3.11h-2.07c-0.69-1.03-1.38-2.07-2.07-3.1H331.2c-0.69-1.04-1.38-2.07-2.07-3.11h-2.07l-1.035-2.07h-2.07c-0.69-1.03-1.38-2.07-2.07-3.1h-2.07c-0.69-1.04-1.38-2.07-2.07-3.11h-2.07l-3.1-4.14H310.5c-0.69-1.03-1.38-2.07-2.07-3.1h-2.07c-0.69-1.04-1.38-2.07-2.07-3.11h-2.07l-3.105-4.14h-2.07l-3.105-4.14c-1.035-.34-2.07-0.69-3.1-1.03l-1.035-2.07h-2.07c-0.69-1.04-1.38-2.07-2.07-3.11-1.38-1.03-2.76-2.07-4.14-3.1v-1.04h-2.07q-3.105-3.615-6.21-7.24h-2.07q-2.07-2.595-4.14-5.18c-10.951-7.92-19.579-17.51-28.98-26.91-7.549-7.55-15.361-13.96-21.735-22.77q-7.245-6.735-14.491-13.46v-2.07c-0.69-.34-1.38-0.69-2.07-1.03-0.344-1.04-.69-2.07-1.035-3.11-2.069-1.72-4.14-3.45-6.21-5.17-0.345-1.04-.69-2.07-1.035-3.11l-5.175-4.14v-2.07c-0.69-.34-1.38-0.69-2.07-1.03-0.344-1.04-.69-2.07-1.035-3.11-1.38-1.03-2.76-2.07-4.14-3.1v-2.07c-1.379-1.04-2.76-2.07-4.14-3.11v-2.07c-1.379-1.03-2.76-2.07-4.14-3.1v-2.07l-3.105-2.07v-2.07l-3.1-2.07v-2.07l-3.1-2.07c-0.345-1.04-.69-2.07-1.035-3.11-0.69-.34-1.38-0.69-2.07-1.03v-2.07c-0.69-.35-1.38-0.69-2.07-1.04v-2.07l-3.1-2.07v-2.07l-3.105-2.07v-2.07l-3.1-2.07-1.035-4.14c-0.69-.35-1.38-0.69-2.07-1.04-0.345-1.03-.69-2.07-1.035-3.1l-3.105-2.07v-2.07c-0.69-.35-1.38-0.69-2.07-1.04-0.345-1.03-.69-2.07-1.035-3.1h-1.035v-2.07c-0.69-.35-1.38-0.69-2.07-1.04v-2.07c-0.69-.34-1.38-0.69-2.07-1.03v-2.07l-3.1-2.07-1.035-4.14H126.27c-0.345-1.04-.69-2.07-1.035-3.11-0.69-.34-1.38-0.69-2.07-1.03l-1.035-4.14c-0.69-.35-1.38-0.69-2.07-1.04v-2.07c-0.69-.34-1.38-0.69-2.07-1.03v-2.07c-0.69-.35-1.38-0.69-2.07-1.04l-1.035-4.14c-0.69-.34-1.38-0.69-2.07-1.03l-1.035-4.14c-0.69-.35-1.38-0.69-2.07-1.04l-1.035-4.14c-0.69-.34-1.38-0.69-2.07-1.03l-2.07-6.21c-0.69-.35-1.38-0.69-2.07-1.04l-1.035-4.14c-0.69-.34-1.38-0.69-2.07-1.03v-2.07H98.325v-2.07H97.29v-2.07H96.255v-2.07H95.22l-1.035-4.14c-0.69-.35-1.38-0.69-2.07-1.04v-2.07H91.08v-2.07H90.045v-2.07H89.01v-2.07H87.975v-2.07H86.94v-2.07H85.905v-2.07H84.87v-2.07H83.835v-2.07H82.8v-2.07H81.765v-2.07H80.73l-1.035-4.14H78.66v-2.07H77.625v-3.1H76.59v-2.07H75.555v-2.08H74.52v-2.07H73.485l-2.07-6.21H70.38v-3.1H69.345l-1.035-4.14H67.275v-3.11H66.24v-2.07H65.205v-3.1H64.17l-1.035-4.14H62.1v-3.11H61.065l-1.035-4.14H59v-4.14H57.96l-1.035-4.14H55.89v-3.1H54.855l-1.035-6.21H52.785v-2.07H51.75L50.715,1866H49.68v-2.07H48.645c-0.345-2.42-.69-4.83-1.035-7.25H46.575v-3.1H45.54v-2.07H44.505c-0.345-2.42-.69-4.83-1.035-7.25H42.435v-2.07H41.4l-2.07-12.42H38.3v-2.07H37.26q-0.518-4.14-1.035-8.28c-2.943-8.19-5.444-18.55-8.28-26.91-0.345-3.11-.69-6.21-1.035-9.32-4.352-13.45-7.106-29.77-11.385-43.47L14.49,1727.3H13.455v-4.14H12.42v-5.17H11.385v-7.25H10.35l-1.035-10.35H8.28v-9.31H7.245v-9.32H6.21v-10.35H5.175v-4.14H4.14v-13.46H3.1v-15.52H2.07v-4.14H1.035v-4.14H0v-79.7H1.035v-4.14H2.07v-4.14H3.1V1526.5H4.14v-13.45H5.175v-4.14H6.21l2.07-28.98H9.315v-4.14H10.35v-6.21h1.035v-7.25c4.642-15.33,6.578-33.75,11.385-48.64q1.035-6.735,2.07-13.46c2.6-7.59,4.655-17.25,7.245-24.84l1.035-8.28h1.035V1364H35.19v-3.1h1.035q0.518-4.14,1.035-8.28H38.3v-2.07H39.33l2.07-12.42h1.035v-2.07H43.47c0.345-2.42.69-4.83,1.035-7.25H45.54v-2.07h1.035v-3.1H47.61v-4.14h1.035v-3.11H49.68v-2.07h1.035l1.035-6.21h1.035v-2.07H53.82c0.69-3.1,1.38-6.21,2.07-9.31h1.035v-2.07H57.96L59,1288.45H60.03l1.035-4.14H62.1v-3.11h1.035l1.035-4.14h1.035l1.035-6.21h1.035l1.035-4.14h1.035v-2.07H70.38v-3.11h1.035v-2.07H72.45v-2.07h1.035l2.07-6.21H76.59v-3.1h1.035v-2.07H78.66l1.035-4.14H80.73l1.035-4.14H82.8l1.035-4.14H84.87v-2.07h1.035v-2.07H86.94v-2.07h1.035v-2.07H89.01v-2.07h1.035v-2.07H91.08v-2.07h1.035v-2.07c0.69-.35,1.38-0.69,2.07-1.04v-2.07H95.22v-2.07h1.035v-2.07H97.29v-2.07h1.035l1.035-4.14c0.69-.34,1.38-0.69,2.07-1.03l2.07-6.21c0.69-.35,1.38-0.69,2.07-1.04l1.035-4.14c0.69-.34,1.38-0.69,2.07-1.03l1.035-4.14c0.69-.35,1.38-0.69,2.07-1.04l1.035-4.14c0.69-.34,1.38-0.69,2.07-1.03l1.035-4.14c0.69-.35,1.38-0.69,2.07-1.04l2.07-6.21,3.105-2.07v-2.07c0.69-.34,1.38-0.69,2.07-1.03,0.345-1.04.69-2.07,1.035-3.11h1.035l1.035-4.14,3.1-2.07v-2.07c0.69-.34,1.38-0.69,2.07-1.03,0.345-1.04.69-2.07,1.035-3.11h1.035v-2.07c0.69-.34,1.38-0.69,2.07-1.03v-2.07c0.69-.35,1.38-0.7,2.07-1.04v-2.07l3.105-2.07c0.345-1.04.69-2.07,1.035-3.11,0.69-.34,1.38-0.69,2.07-1.03l1.035-4.14,3.1-2.07v-2.07l3.105-2.07v-2.07l3.1-2.07v-2.07c0.69-.35,1.38-0.69,2.07-1.04v-2.07c0.69-.34,1.38-0.69,2.07-1.03,0.345-1.04.69-2.07,1.035-3.11l3.1-2.07v-2.07l3.1-2.07v-2.07l3.105-2.07v-2.07l3.1-2.07v-2.07l5.175-4.14v-2.07l3.1-2.07v-2.07c1.38-1.03,2.76-2.07,4.14-3.1v-2.07c2.07-1.73,4.141-3.45,6.21-5.18v-2.07l5.176-4.14v-2.07c0.689-.34,1.38-0.69,2.069-1.03v-1.04c0.69-.34,1.38-0.69,2.07-1.03v-2.07q7.245-6.735,14.491-13.46v-2.07l13.454-12.42c8.544-8.54,15.927-17.65,25.876-24.84q4.138-4.665,8.28-9.316c2-1.991,3.967-2.548,6.21-4.14l2.07-3.105h2.07q3.1-3.622,6.21-7.245h2.07v-1.035l3.105-2.07,2.07-3.105h2.07l2.07-3.106h2.07l3.105-4.14h2.07l4.14-5.175h2.07l3.1-4.14h2.07l2.07-3.105h2.07l1.035-2.07h2.07l2.07-3.105h2.07l2.07-3.105,3.1-1.036q0.518-1.033,1.035-2.07h2.07q0.518-1.033,1.035-2.07h2.07l2.07-3.105,3.105-1.035,1.035-2.07,4.14-1.035,2.07-3.1h2.07l2.07-3.105h2.07l2.07-3.105,4.14-1.035,2.07-3.105,4.14-1.035,1.035-2.071h2.07V917.9l3.105-1.035,1.035-2.07h2.07l1.035-2.07,3.105-1.035v-1.035h2.07v-1.035h2.07l1.035-2.07,4.14-1.035,1.035-2.07h2.07l1.035-2.07h2.07l1.035-2.07,6.21-2.07q0.518-1.035,1.035-2.07l6.21-2.071,1.035-2.07h2.07V890.99h2.07v-1.035h2.07V888.92h2.07l1.035-2.07,6.21-2.07,1.035-2.07h2.07v-1.035h2.07V880.64h2.07v-1.035h2.07V878.57h2.07v-1.035h2.07V876.5l4.14-1.035V874.43h2.07V873.4h2.07V872.36h2.07v-1.035h2.07V870.29l4.14-1.035V868.22h2.07v-1.036h3.105v-1.035h2.07v-1.035h2.07v-1.035h2.07v-1.035l6.21-2.07v-1.035h3.1V858.9l4.14-1.035v-1.035h3.1V855.8l4.14-1.035v-1.035l6.21-1.035v-1.035l4.14-1.035v-1.035l9.315-2.07,1.035-2.07,6.21-1.035v-1.036h2.07v-1.035l9.315-2.07v-1.035h2.07V838.2l7.245-1.035v-1.035h2.07V835.1h3.105v-1.035l7.246-1.035v-1.035h2.069v-1.035l12.42-2.07v-1.035h2.071v-1.035l8.28-1.035v-1.035h2.07v-1.035l8.279-1.035c4.877-1.666,11.681-3.519,16.561-5.175h4.14v-1.036h4.14v-1.035h4.14V814.4h4.14v-1.035h5.175v-1.035Zm2537.823,82.8c-2.69,2.207-10.99.928-15.52,1.035l-28.98,2.07v1.035h-10.35v1.035h-8.28v1.035h-7.25v1.035h-7.24v1.035h-6.21v1.035h-7.25v1.035h-5.17v1.035h-6.21v1.035l-15.53,2.07v1.035l-9.31,1.035v1.035l-8.28,1.035V914.8h-3.11v1.035l-11.38,2.07v1.035h-4.14l-51.75,17.6v1.035h-2.07V938.6l-6.21,1.035v1.035l-5.18,1.035v1.035h-2.07v1.035h-3.1v1.035l-4.14,1.035v1.035h-3.11v1.036h-2.07v1.035l-4.14,1.035v1.035h-3.1v1.035h-2.07v1.035h-2.07v1.035h-2.07v1.035h-3.11V956.2l-4.14,1.035v1.035l-6.21,2.07v1.035l-4.14,1.035v1.035l-4.14,1.035v1.035h-2.07v1.035h-2.07v1.035h-2.07v1.035h-2.07v1.035h-2.07v1.035h-2.07v1.035h-2.07v1.035h-2.07c-0.34.69-.69,1.381-1.03,2.071l-4.14,1.035V976.9h-2.07v1.035h-2.07c-0.35.69-.69,1.38-1.04,2.07h-2.07v1.035h-2.07v1.035h-2.07v1.035h-2.07c-0.34.69-.69,1.38-1.03,2.07l-4.14,1.035c-0.35.69-.69,1.38-1.04,2.07l-4.14,1.035c-0.34.69-.69,1.38-1.03,2.07l-4.14,1.035c-0.35.69-.69,1.38-1.04,2.07h-2.07c-0.34.69-.69,1.38-1.03,2.07l-4.14,1.035c-0.35.69-.69,1.381-1.04,2.071h-2.07c-0.34.69-.69,1.38-1.03,2.07h-2.07c-0.35.69-.69,1.38-1.04,2.07h-2.07c-0.34.69-.69,1.38-1.03,2.07h-2.07c-0.35.69-.69,1.38-1.04,2.07h-2.07v1.03c-1.03.35-2.07,0.69-3.1,1.04-0.35.69-.69,1.38-1.04,2.07h-2.07v1.04c-1.03.34-2.07,0.69-3.1,1.03-0.35.69-.69,1.38-1.04,2.07h-2.07c-0.69,1.04-1.38,2.07-2.07,3.11h-2.07c-0.34.69-.69,1.38-1.03,2.07h-2.07c-0.69,1.03-1.38,2.07-2.07,3.1h-2.07c-1.04,1.38-2.07,2.76-3.11,4.14h-2.07c-0.69,1.04-1.38,2.07-2.07,3.11h-2.07v1.03c-1.38,1.04-2.76,2.07-4.14,3.11v1.03h1.04c2.73,4.63,7.06,7.22,11.38,10.35,1.73,2.07,3.45,4.14,5.18,6.21h2.07q7.755,8.28,15.52,16.56h2.07c1.04,1.38,2.07,2.76,3.11,4.14h1.03c0.35,0.69.69,1.38,1.04,2.07h2.07q5.175,5.7,10.35,11.39h2.07c1.72,2.07,3.45,4.14,5.17,6.21h2.07q5.175,5.685,10.35,11.38h2.07q5.175,5.7,10.35,11.39h2.07c1.73,2.07,3.45,4.14,5.18,6.21h2.07q7.755,8.28,15.52,16.56c1.04,0.34,2.07.69,3.11,1.03q2.07,2.6,4.14,5.18h2.07c1.72,2.07,3.45,4.14,5.17,6.21h2.07q5.175,5.7,10.35,11.39h2.07q5.175,5.685,10.35,11.38h2.07q5.175,5.7,10.35,11.39h2.07c0.35,0.69.69,1.38,1.04,2.07h1.03q4.14,4.65,8.28,9.31h2.07c1.04,1.38,2.07,2.76,3.11,4.14h1.03c0.35,0.69.69,1.38,1.04,2.07h2.07q5.175,5.7,10.35,11.39h2.07q5.175,5.685,10.35,11.38h2.07q3.105,3.63,6.21,7.25h2.07q5.175,5.685,10.35,11.38h2.07c1.38,1.73,2.76,3.45,4.14,5.18h2.07q4.14,4.65,8.28,9.31c1.03,0.69,2.07,1.38,3.1,2.07v1.04h2.07q4.665,5.175,9.32,10.35h2.07q5.685,6.21,11.38,12.42h2.07c1.73,2.07,3.45,4.14,5.18,6.21h2.07c1.38,1.73,2.76,3.45,4.14,5.18h2.07c0.69,1.03,1.38,2.07,2.07,3.1,2.07,1.73,4.14,3.45,6.21,5.18q3.615,4.14,7.24,8.28h2.07q3.105,3.615,6.21,7.24h2.07q5.175,5.7,10.35,11.39h2.07q4.665,5.175,9.32,10.35h2.07c0.34,0.69.69,1.38,1.03,2.07h1.04c1.03,1.38,2.07,2.76,3.1,4.14h2.07q5.175,5.685,10.35,11.38h2.07q5.175,5.7,10.35,11.39h2.07q3.105,3.615,6.21,7.24h2.07q5.175,5.7,10.35,11.39h2.07c1.04,1.38,2.07,2.76,3.11,4.14q4.14,3.615,8.28,7.24c3.38-.89,4.9-3.2,7.24-5.17v-1.04h2.07q3.1-3.615,6.21-7.24h2.07q3.105-3.63,6.21-7.25h2.07q3.63-4.14,7.25-8.28h2.07c0.69-1.03,1.38-2.07,2.07-3.1,1.38-1.04,2.76-2.07,4.14-3.11v-1.03H3223q3.105-3.63,6.21-7.25c15.45-11.19,28.01-25.04,43.47-36.22,0.69-1.04,1.38-2.07,2.07-3.11,1.38-1.03,2.76-2.07,4.14-3.1v-1.04h2.07q3.615-4.14,7.24-8.28h2.07c0.69-1.03,1.38-2.07,2.07-3.1,1.38-1.04,2.76-2.07,4.14-3.11v-1.03h2.07q3.1-3.63,6.21-7.25c18.41-13.33,33.34-30.15,51.75-43.47q3.63-4.14,7.25-8.28h2.07q3.105-3.63,6.21-7.25h2.07q3.1-3.615,6.21-7.24h2.07q3.105-3.63,6.21-7.25h2.07q3.1-3.615,6.21-7.24h2.07q3.105-3.63,6.21-7.25h2.07q3.105-3.615,6.21-7.24h2.07q3.1-3.63,6.21-7.25h2.07q3.105-3.615,6.21-7.24h2.07q3.1-3.63,6.21-7.25h2.07q3.615-4.14,7.24-8.28h2.08c2.06-2.41,4.14-4.83,6.21-7.24h2.06q3.105-3.63,6.22-7.25h2.06c2.07-2.41,4.15-4.83,6.21-7.24h2.08c2.06-2.42,4.14-4.84,6.21-7.25h2.07c2.06-2.42,4.14-4.83,6.21-7.25h2.07c2.06-2.41,4.14-4.83,6.21-7.24,18.8-13.62,33.96-30.9,52.78-44.51,0.69-1.03,1.38-2.07,2.07-3.1,1.38-1.04,2.76-2.07,4.14-3.11v-1.03h2.07q3.1-3.63,6.21-7.25h2.07q3.105-3.615,6.21-7.24h2.07q3.1-3.63,6.21-7.25h2.07q3.105-3.615,6.21-7.24h2.07c1.04-1.38,2.07-2.76,3.11-4.14l-6.21-4.14c-0.35-.69-0.69-1.38-1.04-2.07h-2.07c-0.69-1.04-1.38-2.07-2.07-3.11h-2.07c-1.03-1.38-2.07-2.76-3.1-4.14h-2.07c-0.69-1.03-1.38-2.07-2.07-3.1h-2.07c-0.35-.69-0.69-1.38-1.04-2.07h-2.07c-0.69-1.04-1.38-2.07-2.07-3.11h-2.07c-0.34-.69-0.69-1.38-1.03-2.07-1.04-.34-2.07-0.69-3.11-1.03v-1.04h-2.07c-0.34-.69-0.69-1.38-1.03-2.07h-2.07c-0.35-.69-0.69-1.38-1.04-2.07h-2.07c-0.34-.69-0.69-1.38-1.03-2.07h-2.07c-0.35-.69-0.69-1.38-1.04-2.07h-2.07c-0.34-.69-0.69-1.38-1.03-2.07h-2.07c-0.35-.69-0.69-1.38-1.04-2.07h-2.07c-0.34-.69-0.69-1.381-1.03-2.071-1.38-.345-2.77-0.69-4.14-1.035v-1.035c-1.04-.345-2.07-0.69-3.11-1.035-0.34-.69-0.69-1.38-1.03-2.07l-4.14-1.035c-0.35-.69-0.69-1.38-1.04-2.07l-4.14-1.035c-0.34-.69-0.69-1.38-1.03-2.07l-4.14-1.035c-0.35-.69-0.69-1.38-1.04-2.07h-2.07v-1.035h-2.07v-1.035h-2.07V980h-2.07c-0.34-.69-0.69-1.38-1.03-2.07h-2.07V976.9h-2.07v-1.035h-2.07v-1.035h-2.07c-0.35-.69-0.69-1.381-1.04-2.071h-2.07v-1.035h-2.07v-1.035h-2.07v-1.035h-2.07v-1.035h-2.07v-1.035h-2.07v-1.035l-4.14-1.035v-1.035l-4.14-1.035v-1.035h-2.07v-1.035h-2.07v-1.035h-2.07V959.3h-2.07v-1.035l-4.14-1.035V956.2h-2.07v-1.035h-3.11v-1.035h-2.06v-1.035l-4.15-1.035v-1.035h-3.1v-1.035h-2.07v-1.035l-4.14-1.035v-1.036h-3.11v-1.035c-1.37-.345-2.76-0.69-4.14-1.035v-1.035h-3.1v-1.035H3430v-1.035h-3.11v-1.035h-2.07v-1.035h-3.1V938.6h-2.07v-1.035l-6.21-1.035c-17.33-7.574-37.36-13.038-55.89-19.666l-44.51-10.35h-6.21c-9.81-2.98-23.03-3.289-33.12-6.21h-8.28v-1.035h-10.35v-1.035h-10.35V897.2h-14.49c-5.03-1.424-13.98.567-19.66-1.035v-1.035h-52.79Zm-487.48,245.3c-0.66,2.69-1.64,3.4-3.11,5.18h-1.03v2.07c-1.38,1.04-2.76,2.07-4.14,3.11v2.07c-1.04.69-2.07,1.38-3.11,2.07V1157c-1.38,1.03-2.76,2.07-4.14,3.1-0.34,1.04-.69,2.07-1.03,3.11-0.69.34-1.38,0.69-2.07,1.03v2.07c-0.69.35-1.38,0.69-2.07,1.04v2.07c-1.04.69-2.07,1.38-3.11,2.07v2.07c-0.69.34-1.38,0.69-2.07,1.03-0.34,1.04-.69,2.07-1.03,3.11h-1.04v2.07c-0.69.34-1.38,0.69-2.07,1.03v2.07c-0.69.35-1.38,0.69-2.07,1.04v2.07c-0.69.34-1.38,0.69-2.07,1.03v2.07c-0.69.35-1.38,0.69-2.07,1.04v2.07c-0.69.34-1.38,0.69-2.07,1.03v2.07c-0.69.35-1.38,0.69-2.07,1.04v2.07c-0.69.34-1.38,0.69-2.07,1.03v2.07c-0.69.35-1.38,0.69-2.07,1.04-0.34,1.38-.69,2.76-1.03,4.14-0.69.34-1.38,0.69-2.07,1.03-0.35,1.38-.69,2.76-1.04,4.14-0.69.35-1.38,0.69-2.07,1.04-0.34,1.38-.69,2.76-1.03,4.14-0.69.34-1.38,0.69-2.07,1.03-0.35,1.38-.69,2.76-1.04,4.14-0.69.35-1.38,0.69-2.07,1.04-0.34,1.38-.69,2.76-1.03,4.14h-1.04v2.07h-1.03v2.07c-0.69.34-1.38,0.69-2.07,1.03v2.07h-1.04v2.07h-1.03v2.07h-1.04v2.07c-0.69.35-1.38,0.69-2.07,1.04v2.07H2602v2.07h-1.04v2.07h-1.03v2.07h-1.04c-0.34,1.38-.69,2.76-1.03,4.14h-1.04c-0.34,1.38-.69,2.76-1.03,4.14h-1.04v2.07h-1.03v2.07h-1.04v2.07h-1.03v2.07h-1.04l-2.07,6.21h-1.03c-0.35,1.38-.69,2.76-1.04,4.14h-1.03v3.11h-1.04v2.07h-1.03c-0.35,1.38-.69,2.76-1.04,4.14h-1.03v3.1h-1.04v2.07h-1.03v2.07h-1.04v2.07h-1.03v3.11h-1.04c-0.34,1.38-.69,2.76-1.03,4.14h-1.04v3.1h-1.03v2.07h-1.04v3.11h-1.03v2.07h-1.04v3.1h-1.03v2.07h-1.04c-0.34,2.07-.69,4.14-1.03,6.21h-1.04v2.07h-1.03c-0.69,3.11-1.38,6.21-2.07,9.32h-1.04v2.07h-1.03c-0.35,2.07-.69,4.14-1.04,6.21h-1.03v3.1h-1.04v3.11h-1.03v3.1h-1.04v3.11h-1.03v3.1h-1.04v3.11h-1.03v4.14h-1.04v3.1h-1.03v3.11h-1.04c-0.34,2.41-.69,4.83-1.03,7.24h-1.04q-1.035,5.7-2.07,11.39h-1.03c-0.35,2.76-.69,5.52-1.04,8.28h-1.03v5.17c-3.61,11.21-4.85,25.61-8.28,37.27q-0.525,7.245-1.04,14.49c-3.07,10.61-2.08,25.36-5.17,36.22v14.49h-1.04v19.67c-2.48,8.95-1.03,23.39-1.03,34.16v18.63h1.03c1.61,5.67-.39,14.63,1.04,19.66v14.49h1.03v10.35h1.04v10.35h1.03v8.28c1.86,6.32,2.27,15.43,4.14,21.74v6.21c1.97,6.41,3.18,15.39,5.18,21.74v5.17h1.03c0.35,3.11.69,6.21,1.04,9.32H2543c0.35,2.76.69,5.52,1.04,8.28h1.03v3.1h1.04q1.035,5.7,2.07,11.39h1.03v4.14h1.04v3.1h1.03v3.11h1.04v4.14h1.03v3.1h1.04v3.11h1.03v3.1h1.04v3.11h1.03v3.1h1.04v3.11h1.03c0.35,2.07.69,4.14,1.04,6.21h1.03v2.07h1.04c0.69,3.1,1.38,6.21,2.07,9.31h1.03v2.07h1.04c0.34,2.07.69,4.14,1.03,6.21h1.04v2.07h1.03v3.11h1.04c0.34,1.72.69,3.45,1.03,5.18h1.04v2.07h1.03v3.1h1.04c0.34,1.38.69,2.76,1.03,4.14h1.04v3.11h1.03c0.35,1.38.69,2.76,1.04,4.14h1.03v3.1h1.04v2.07h1.03l2.07,6.21h1.04v3.11h1.03l2.07,6.21h1.04v2.07h1.03v2.07h1.04v2.07h1.03q3.63,8.28,7.25,16.56h1.03v2.07H2602v2.07h1.03V1866c0.69,0.34,1.38.69,2.07,1.03v2.07h1.04v2.07h1.03v2.07h1.04v2.07h1.03v2.07c0.69,0.35,1.38.69,2.07,1.04l2.07,6.21c0.69,0.34,1.38.69,2.07,1.03v2.07c1.5,2.59,3.28,3.61,4.14,7.25h1.04v-1.04q6.21-6.72,12.42-13.45h2.07q3.105-3.63,6.21-7.25h2.07q3.1-3.615,6.21-7.24h2.07q3.615-4.14,7.24-8.28h2.07c0.69-1.04,1.38-2.07,2.07-3.11,1.38-1.03,2.76-2.07,4.14-3.1v-1.04h2.07q3.105-3.615,6.21-7.24c18.41-13.33,33.34-30.16,51.75-43.47q3.105-3.63,6.21-7.25h2.07q3.63-4.14,7.25-8.28h2.07q3.105-3.63,6.21-7.25h2.07q3.1-3.615,6.21-7.24h2.07q3.105-3.63,6.21-7.25c12.49-9.04,22.69-19.94,35.19-28.98,0.69-1.03,1.38-2.07,2.07-3.1,1.38-1.04,2.76-2.07,4.14-3.11v-1.03h2.07q3.615-4.14,7.24-8.28c18.41-13.33,33.34-30.16,51.75-43.47,0.69-1.04,1.38-2.07,2.07-3.11,1.38-1.03,2.76-2.07,4.14-3.1v-1.04h2.07q3.1-3.615,6.21-7.25h2.07q3.63-4.14,7.25-8.28h2.07q3.105-3.615,6.21-7.24c12.49-9.05,22.69-19.94,35.19-28.98,0.69-1.04,1.38-2.07,2.07-3.11,1.38-1.03,2.76-2.07,4.14-3.1v-1.04h2.07q3.105-3.615,6.21-7.24h2.07c0.69-1.04,1.38-2.07,2.07-3.11,1.38-1.03,2.76-2.07,4.14-3.1v-1.04h2.07q3.105-3.615,6.21-7.24h2.07q3.615-4.14,7.24-8.28h2.07q3.105-3.63,6.21-7.25c12.5-9.04,22.69-19.94,35.19-28.98,0.69-1.03,1.38-2.07,2.07-3.1q2.07-1.56,4.14-3.11v-1.04h2.07q3.105-3.615,6.21-7.24h2.07q3.105-3.63,6.21-7.25h2.07c1.04-1.38,2.07-2.76,3.11-4.14,1.38-1.03,2.76-2.07,4.14-3.1v-1.04h2.07c1.38-1.72,2.76-3.45,4.14-5.17,3.16-3.06,6.88-3.11,8.28-8.28-4.3-2.31-8.01-6-11.39-9.32-0.69-1.03-1.38-2.07-2.07-3.1-1.03-.35-2.07-0.69-3.1-1.04-1.38-1.72-2.76-3.45-4.14-5.17h-2.07q-5.175-5.7-10.35-11.39h-2.07c-1.73-2.07-3.45-4.14-5.18-6.21h-2.07q-4.14-4.65-8.28-9.31c-2.07-1.73-4.14-3.45-6.21-5.18-0.34-.69-0.69-1.38-1.03-2.07h-2.07q-3.1-3.615-6.21-7.24h-2.07q-4.665-5.175-9.32-10.35h-2.07c-1.72-2.07-3.45-4.14-5.17-6.21h-2.07q-4.14-4.665-8.28-9.32h-1.04c-0.34-.69-0.69-1.38-1.03-2.07h-2.07q-5.7-6.21-11.39-12.42h-2.07q-5.175-5.7-10.35-11.39h-2.07c-1.03-1.38-2.07-2.76-3.1-4.14h-1.04c-0.34-.69-0.69-1.38-1.03-2.07h-2.07q-4.665-5.175-9.32-10.35h-2.07q-5.175-5.685-10.35-11.38h-2.07q-3.105-3.63-6.21-7.25h-2.07q-5.175-5.685-10.35-11.38h-2.07q-4.65-5.175-9.31-10.35h-2.07q-3.105-3.63-6.21-7.25h-2.07q-4.665-5.175-9.32-10.35h-2.07q-5.685-6.21-11.38-12.42h-2.07c-1.73-2.07-3.45-4.14-5.18-6.21h-2.07q-5.175-5.685-10.35-11.38h-2.07q-5.175-5.7-10.35-11.39h-2.07c-1.72-2.07-3.45-4.14-5.17-6.21h-2.07q-5.175-5.7-10.35-11.39h-2.07q-5.175-5.685-10.35-11.38h-2.07c-1.73-2.07-3.45-4.14-5.18-6.21h-2.07q-5.175-5.7-10.35-11.39h-2.07q-4.65-5.175-9.31-10.35h-2.07q-3.105-3.615-6.21-7.24h-2.07q-5.175-5.7-10.35-11.39h-2.07q-5.175-5.685-10.35-11.38h-2.07q-5.175-5.7-10.35-11.39h-2.07c-1.73-2.07-3.45-4.14-5.18-6.21h-2.07q-5.175-5.685-10.35-11.38h-2.07c-1.03-1.38-2.07-2.76-3.1-4.14h-1.04c-0.34-.69-0.69-1.38-1.03-2.07h-2.07c-0.35-.69-0.69-1.38-1.04-2.07Z"/>
</svg>
